<svg width="479" height="251" viewBox="0 0 479 251" fill="none" xmlns="http://www.w3.org/2000/svg">
<rect y="51.1836" width="478.621" height="198.839" rx="50" fill="url(#paint0_linear_65_221)"/>
<path d="M206.78 209.18C206.084 207.716 205.076 206.588 203.756 205.796C202.436 204.98 200.9 204.572 199.148 204.572C197.396 204.572 195.812 204.98 194.396 205.796C193.004 206.588 191.9 207.74 191.084 209.252C190.292 210.74 189.896 212.468 189.896 214.436C189.896 216.404 190.292 218.132 191.084 219.62C191.9 221.108 193.004 222.26 194.396 223.076C195.812 223.868 197.396 224.264 199.148 224.264C201.596 224.264 203.612 223.532 205.196 222.068C206.78 220.604 207.704 218.624 207.968 216.128H197.96V213.464H211.46V215.984C211.268 218.048 210.62 219.944 209.516 221.672C208.412 223.376 206.96 224.732 205.16 225.74C203.36 226.724 201.356 227.216 199.148 227.216C196.82 227.216 194.696 226.676 192.776 225.596C190.856 224.492 189.332 222.968 188.204 221.024C187.1 219.08 186.548 216.884 186.548 214.436C186.548 211.988 187.1 209.792 188.204 207.848C189.332 205.88 190.856 204.356 192.776 203.276C194.696 202.172 196.82 201.62 199.148 201.62C201.812 201.62 204.164 202.28 206.204 203.6C208.268 204.92 209.768 206.78 210.704 209.18H206.78ZM214.568 217.064C214.568 215.048 214.976 213.284 215.792 211.772C216.608 210.236 217.724 209.048 219.14 208.208C220.58 207.368 222.176 206.948 223.928 206.948C225.656 206.948 227.156 207.32 228.428 208.064C229.7 208.808 230.648 209.744 231.272 210.872V207.272H234.584V227H231.272V223.328C230.624 224.48 229.652 225.44 228.356 226.208C227.084 226.952 225.596 227.324 223.892 227.324C222.14 227.324 220.556 226.892 219.14 226.028C217.724 225.164 216.608 223.952 215.792 222.392C214.976 220.832 214.568 219.056 214.568 217.064ZM231.272 217.1C231.272 215.612 230.972 214.316 230.372 213.212C229.772 212.108 228.956 211.268 227.924 210.692C226.916 210.092 225.8 209.792 224.576 209.792C223.352 209.792 222.236 210.08 221.228 210.656C220.22 211.232 219.416 212.072 218.816 213.176C218.216 214.28 217.916 215.576 217.916 217.064C217.916 218.576 218.216 219.896 218.816 221.024C219.416 222.128 220.22 222.98 221.228 223.58C222.236 224.156 223.352 224.444 224.576 224.444C225.8 224.444 226.916 224.156 227.924 223.58C228.956 222.98 229.772 222.128 230.372 221.024C230.972 219.896 231.272 218.588 231.272 217.1ZM244.116 209.972V221.6C244.116 222.56 244.32 223.244 244.728 223.652C245.136 224.036 245.844 224.228 246.852 224.228H249.264V227H246.312C244.488 227 243.12 226.58 242.208 225.74C241.296 224.9 240.84 223.52 240.84 221.6V209.972H238.284V207.272H240.84V202.304H244.116V207.272H249.264V209.972H244.116ZM261.837 227.324C259.989 227.324 258.309 226.904 256.797 226.064C255.309 225.224 254.133 224.036 253.269 222.5C252.429 220.94 252.009 219.14 252.009 217.1C252.009 215.084 252.441 213.308 253.305 211.772C254.193 210.212 255.393 209.024 256.905 208.208C258.417 207.368 260.109 206.948 261.981 206.948C263.853 206.948 265.545 207.368 267.057 208.208C268.569 209.024 269.757 210.2 270.621 211.736C271.509 213.272 271.953 215.06 271.953 217.1C271.953 219.14 271.497 220.94 270.585 222.5C269.697 224.036 268.485 225.224 266.949 226.064C265.413 226.904 263.709 227.324 261.837 227.324ZM261.837 224.444C263.013 224.444 264.117 224.168 265.149 223.616C266.181 223.064 267.009 222.236 267.633 221.132C268.281 220.028 268.605 218.684 268.605 217.1C268.605 215.516 268.293 214.172 267.669 213.068C267.045 211.964 266.229 211.148 265.221 210.62C264.213 210.068 263.121 209.792 261.945 209.792C260.745 209.792 259.641 210.068 258.633 210.62C257.649 211.148 256.857 211.964 256.257 213.068C255.657 214.172 255.357 215.516 255.357 217.1C255.357 218.708 255.645 220.064 256.221 221.168C256.821 222.272 257.613 223.1 258.597 223.652C259.581 224.18 260.661 224.444 261.837 224.444ZM283.244 227.324C281.732 227.324 280.376 227.072 279.176 226.568C277.976 226.04 277.028 225.32 276.332 224.408C275.636 223.472 275.252 222.404 275.18 221.204H278.564C278.66 222.188 279.116 222.992 279.932 223.616C280.772 224.24 281.864 224.552 283.208 224.552C284.456 224.552 285.44 224.276 286.16 223.724C286.88 223.172 287.24 222.476 287.24 221.636C287.24 220.772 286.856 220.136 286.088 219.728C285.32 219.296 284.132 218.876 282.524 218.468C281.06 218.084 279.86 217.7 278.924 217.316C278.012 216.908 277.22 216.32 276.548 215.552C275.9 214.76 275.576 213.728 275.576 212.456C275.576 211.448 275.876 210.524 276.476 209.684C277.076 208.844 277.928 208.184 279.032 207.704C280.136 207.2 281.396 206.948 282.812 206.948C284.996 206.948 286.76 207.5 288.104 208.604C289.448 209.708 290.168 211.22 290.264 213.14H286.988C286.916 212.108 286.496 211.28 285.728 210.656C284.984 210.032 283.976 209.72 282.704 209.72C281.528 209.72 280.592 209.972 279.896 210.476C279.2 210.98 278.852 211.64 278.852 212.456C278.852 213.104 279.056 213.644 279.464 214.076C279.896 214.484 280.424 214.82 281.048 215.084C281.696 215.324 282.584 215.6 283.712 215.912C285.128 216.296 286.28 216.68 287.168 217.064C288.056 217.424 288.812 217.976 289.436 218.72C290.084 219.464 290.42 220.436 290.444 221.636C290.444 222.716 290.144 223.688 289.544 224.552C288.944 225.416 288.092 226.1 286.988 226.604C285.908 227.084 284.66 227.324 283.244 227.324Z" fill="#401604"/>
<g clip-path="url(#clip0_65_221)">
<path d="M143.069 70.2741C139.461 74.6214 136.437 79.5925 135.167 85.087C133.897 90.5814 134.542 96.6797 137.727 101.349C140.59 105.535 145.206 108.212 149.883 110.225C171.999 119.724 197.158 117.007 221.209 118.476C250.057 120.227 279.491 128.177 307.351 120.489C313.803 118.698 320.354 115.86 324.306 110.466C327.652 105.918 328.741 100.021 328.439 94.3652C328.136 88.7298 326.543 83.2354 324.971 77.8214C321.645 66.3696 318.318 54.9179 314.972 43.4661C285.418 40.0446 287.655 38.4345 257.92 39.7427C243.102 43.305 219.939 35.1942 186.856 42.5805C172.079 45.8611 152.706 58.6211 143.069 70.2741Z" fill="#F3EEE9"/>
<path d="M314.972 43.4457C299.388 41.6344 292.635 40.3463 285.377 39.7224C276.567 39.984 267.758 40.3865 259.049 39.6821C258.666 39.7023 258.303 39.7224 257.9 39.7224C255.884 40.2054 253.706 40.4671 251.368 40.5878C249.654 40.6683 246.892 52.6233 250.783 58.3794C254.634 64.0751 247.537 71.1997 253.726 74.1985C259.512 76.9759 266.669 76.4929 271.931 80.1559C274.854 82.1886 276.85 85.2881 279.249 87.9246C283.664 92.7549 289.671 96.0958 296.102 97.2833C297.09 97.4644 298.118 97.6053 299.086 97.3638C301.142 96.8405 302.412 94.8077 303.44 92.9561C305.456 89.3334 307.493 85.6906 309.509 82.0679C310.638 80.0351 311.827 77.9219 313.702 76.513C315.254 75.3457 317.169 74.7419 318.722 73.6149C320.294 72.4677 321.443 70.8777 322.411 69.167C319.951 60.5932 317.472 52.0195 314.972 43.4457Z" fill="#E0D7CE"/>
<path d="M249.755 121.435C247.779 118.879 226.491 102.979 216.935 98.5315C209.637 95.1302 201.714 93.3188 194.074 90.7628C186.433 88.2068 178.833 84.7048 173.45 78.7274C168.672 73.414 165.951 66.3095 165.951 59.1647C165.951 56.3269 166.394 53.469 167.241 50.752C157.766 56.2263 148.734 63.4516 143.069 70.2945C139.461 74.6216 136.437 79.5928 135.167 85.0872C133.897 90.5817 134.542 96.6799 137.727 101.349C140.59 105.535 145.206 108.212 149.883 110.225C171.999 119.724 197.158 117.007 221.209 118.477C230.684 119.04 240.219 120.288 249.755 121.435Z" fill="#E7DFD8"/>
<path d="M258.242 113.706C258.887 117.228 261.689 120.046 264.834 121.777C267.979 123.508 271.507 124.373 274.914 125.541C278.785 126.849 282.555 128.56 286.547 129.465C290.538 130.351 294.933 130.351 298.501 128.358C302.07 126.366 304.529 122.019 303.38 118.094C298.844 116.605 294.872 113.767 291.062 110.909C287.252 108.051 283.442 105.072 279.047 103.18C274.652 101.289 269.532 100.584 265.117 102.416C260.722 104.227 257.375 109.017 258.242 113.706Z" fill="#E7DFD8"/>
<path d="M330.555 123.91C331.442 123.488 332.37 123.005 332.894 122.179C333.781 120.75 333.176 118.939 332.874 117.289C332.349 114.411 332.894 111.472 333.115 108.554C333.337 105.636 333.176 102.496 331.442 100.141C329.063 96.8607 324.165 96.0959 320.455 97.7663C316.746 99.4167 314.206 103.019 312.895 106.843C311.665 110.406 311.363 114.29 312.008 118.013C312.512 120.891 313.722 123.81 316.121 125.46C318.217 126.889 320.959 127.11 323.459 126.647C325.939 126.144 328.257 125.017 330.555 123.91Z" fill="#E7DFD8"/>
<path d="M223.608 151.423C216.269 150.899 208.831 149.309 202.944 145.485C199.234 143.09 196.291 139.91 192.985 137.113C186.05 131.236 177.543 126.989 169.217 122.723C160.87 118.456 146.98 116.725 140.408 110.546C133.836 104.368 131.135 97.2027 131.901 88.8302C132.667 80.4577 143.271 61.8409 152.867 60.7139C150.226 64.3768 147.988 74.8827 146.658 79.0488C145.327 83.2149 145.186 87.7635 147.041 91.7686C148.855 95.6932 152.444 98.7926 156.274 101.389C168.007 109.298 182.522 113.243 196.271 118.114C210.02 122.984 223.95 129.445 231.732 140.434C233.546 142.99 234.958 146.371 233.083 148.907C231.188 151.402 227.075 151.664 223.608 151.423Z" fill="#D7824A"/>
<path d="M287.716 123.991C286.95 125.098 286.264 126.426 286.486 127.774C286.688 129.022 287.675 130.049 288.804 130.632C289.933 131.216 291.223 131.397 292.494 131.538C298.34 132.162 304.287 131.779 310.012 130.391C311.303 130.069 312.996 124.755 311.665 122.843C309.65 119.965 306.464 117.832 302.977 117.228C297.191 116.262 291.062 119.18 287.716 123.991Z" fill="white"/>
<path d="M336.18 119.603C333.115 117.449 329.144 116.644 325.495 117.409C321.826 118.174 318.52 120.509 316.584 123.689C315.939 124.735 315.435 125.983 315.818 127.15C316.282 128.619 317.915 129.304 319.387 129.747C323.741 130.994 328.338 131.357 332.833 130.793C335.434 130.471 338.337 129.545 339.385 127.15C340.534 124.433 338.599 121.294 336.18 119.603Z" fill="white"/>
<path d="M315.839 57.7554C317.693 56.1051 319.629 54.3944 320.657 52.1402C322.108 48.9603 321.564 45.1766 320.254 41.9363C318.943 38.6959 316.947 35.7776 315.415 32.6178C312.149 25.8957 310.799 17.7848 305.013 13.0149C300.396 9.21108 294.006 8.48654 288.018 8.36578C280.216 8.20477 271.951 8.90919 265.54 13.3571C260.823 16.6376 257.577 21.6893 255.5 27.0429C253.424 32.3964 252.436 38.0922 251.468 43.7476C250.884 47.1288 250.319 50.6912 251.569 53.8711C252.476 56.1655 254.23 58.0171 255.964 59.7882C258.524 62.4247 261.105 65.0814 264.209 67.0537C271.588 71.7029 280.861 71.8035 289.57 71.4412C293.784 71.2601 298.138 70.9783 301.908 69.1066C304.388 67.8789 306.484 66.0273 308.561 64.1958C310.98 62.0222 313.419 59.8888 315.839 57.7554Z" fill="#F3EEE9"/>
<path d="M313.863 31.8933C306.102 19.7371 296.949 17.8855 292.534 16.0138C288.079 14.1219 310.456 -1.33502 315.214 0.275075C318.056 1.22101 315.496 34.4695 313.863 31.8933Z" fill="#D7824A"/>
<path d="M256.388 7.35942C255.077 7.01728 250.299 4.98453 249.916 8.32548C249.432 12.5721 251.267 45.7602 253.122 41.3928C255.763 35.1738 264.351 20.7635 274.269 18.932C277.596 18.3081 259.069 8.04371 256.388 7.35942Z" fill="#D7824A"/>
<path d="M313.843 3.9985C317.673 0.0336416 315.476 23.2794 312.976 30.5651C307.916 24.4467 302.11 19.9384 299.086 18.6504C296.082 17.3422 310.012 7.96336 313.843 3.9985Z" fill="#F39E83"/>
<path d="M250.964 9.43269C250.783 13.5183 252.537 43.0233 253.988 39.944C257.416 32.6784 262.839 26.8217 266.326 23.0179C268.362 20.7637 251.126 5.32695 250.964 9.43269Z" fill="#F39E83"/>
<path d="M307.11 51.4559C309.69 48.7791 311.968 45.7199 313.198 42.1978C313.762 40.628 314.085 38.8569 313.46 37.3072C312.674 35.3147 310.517 34.1876 308.44 33.6241C306.364 33.0606 304.146 32.8593 302.231 31.9134C298.098 29.8605 296.324 24.9095 292.877 21.8503C289.591 18.932 284.712 17.9055 280.519 19.2741C276.326 20.6427 272.999 24.3459 272.072 28.6328C271.749 30.1825 271.669 31.8932 270.661 33.1411C269.975 34.0065 268.927 34.5096 267.939 35.0329C265.54 36.3009 263.282 37.8305 261.206 39.6016C259.452 41.0909 257.779 42.9023 257.436 45.1765C257.133 47.2093 257.96 49.2219 258.968 51.0131C260.278 53.3276 261.911 55.4811 264.028 57.0912C266.145 58.7013 268.745 59.7278 271.407 59.6674C274.471 59.5869 277.273 58.0975 280.156 57.0711C284.208 55.6019 288.542 54.978 292.836 55.2396C296.102 55.4409 299.509 56.1252 302.533 54.8975C304.348 54.1528 305.799 52.8245 307.11 51.4559Z" fill="#4C3927"/>
<path d="M275.68 46.7263C277.434 46.364 279.249 45.5187 280.075 43.9288C280.962 42.2382 280.418 39.9639 278.866 38.8368C277.838 38.0922 276.507 37.8909 275.217 37.7903C273.906 37.6897 272.596 37.7098 271.265 37.8104C270.479 37.8708 269.693 37.9714 268.987 38.3136C267.435 39.0985 266.689 41.0709 267.092 42.7615C267.496 44.4521 268.887 45.8005 270.499 46.4445C272.153 47.0886 273.967 47.0685 275.68 46.7263Z" fill="#231913"/>
<path d="M279.571 42.6811C279.571 42.6811 279.047 38.7162 273.927 38.4948C268.806 38.2935 268.483 41.3729 268.483 41.3729C268.483 41.3729 269.532 45.8811 273.302 46.0421C277.071 46.2233 278.745 44.1301 279.571 42.6811Z" fill="#A4A435"/>
<path d="M273.927 38.4945C272.596 38.4341 271.588 38.6153 270.822 38.897C270.56 39.4405 270.399 40.0442 270.399 40.7084C270.399 42.9625 272.213 44.794 274.451 44.794C276.689 44.794 278.503 42.9625 278.503 40.7084C278.503 40.6078 278.503 40.5071 278.483 40.4065C277.656 39.4807 276.285 38.5952 273.927 38.4945Z" fill="black"/>
<path d="M274.713 41.1312C274.713 41.6746 274.31 42.1174 273.785 42.1174C273.282 42.1174 272.858 41.6746 272.858 41.1312C272.858 40.5878 273.261 40.145 273.785 40.145C274.31 40.145 274.713 40.5878 274.713 41.1312Z" fill="white"/>
<path d="M298.582 45.4987C300.598 45.8006 302.775 45.4585 304.448 44.271C306.122 43.1037 307.21 41.0106 306.928 38.998C306.222 37.8709 305.033 37.086 303.763 36.6835C302.493 36.3011 301.122 36.2608 299.791 36.4017C298.34 36.5426 296.868 36.9049 295.679 37.7502C294.489 38.5955 293.643 40.0043 293.764 41.4735C293.864 42.6006 294.55 43.627 295.457 44.3113C296.344 44.9755 297.453 45.3377 298.582 45.4987Z" fill="#231913"/>
<path d="M294.368 41.2118C294.368 41.2118 294.893 37.247 300.013 37.0256C305.134 36.8243 305.456 39.9036 305.456 39.9036C305.456 39.9036 304.408 44.4119 300.638 44.5729C296.888 44.7741 295.195 42.681 294.368 41.2118Z" fill="#A4A435"/>
<path d="M303.964 39.4006C303.964 38.7566 303.803 38.1528 303.541 37.6094C302.735 37.227 301.606 36.9653 300.033 37.0458C298.118 37.1263 296.848 37.7301 296.001 38.4547C295.921 38.7566 295.88 39.0786 295.88 39.4207C295.88 41.6749 297.695 43.5063 299.932 43.5063C302.17 43.5063 303.964 41.6547 303.964 39.4006Z" fill="black"/>
<path d="M300.195 39.8431C300.195 40.3865 299.791 40.8293 299.267 40.8293C298.763 40.8293 298.34 40.3865 298.34 39.8431C298.34 39.2997 298.743 38.8569 299.267 38.8569C299.771 38.8569 300.195 39.2997 300.195 39.8431Z" fill="white"/>
<path d="M280.075 63.3306C281.89 65.9067 284.974 67.5369 288.119 67.6376C291.264 67.7382 294.429 66.269 296.405 63.8136C294.893 62.928 293.361 62.0425 291.849 61.1569C290.982 60.6538 290.095 60.1506 289.127 59.889C287.514 59.4663 285.76 59.8286 284.248 60.533C282.736 61.2374 281.386 62.284 280.075 63.3306Z" fill="white"/>
<path d="M296.405 63.7936C294.893 62.908 293.361 62.0225 291.849 61.1369C290.982 60.6338 290.095 60.1306 289.127 59.869C287.514 59.4463 285.76 59.8086 284.248 60.513C282.736 61.2174 281.406 62.264 280.095 63.3105C280.418 63.7533 280.761 64.176 281.144 64.5584C283.825 64.176 286.526 63.9345 289.208 63.3105C291.365 62.7671 293.099 64.5986 295.215 65.0213C295.639 64.659 296.042 64.2565 296.405 63.7936Z" fill="#E7DFD5"/>
<path d="M284.672 29.6996C283.885 32.7387 282.857 36.5224 282.615 39.642C282.414 42.198 282.111 44.7943 281.124 47.149C280.136 49.5239 278.402 51.6774 276.043 52.6837C274.511 53.3479 272.636 53.5693 271.608 54.8976C270.701 56.0851 270.802 57.7354 271.044 59.2248C271.265 60.5128 271.608 61.8613 272.515 62.8072C274.068 64.4173 276.628 64.3368 278.866 64.1154C282.454 63.7733 286.325 63.2902 288.905 60.7946C290.841 63.1896 294.167 63.9544 297.251 63.9544C299.005 63.9544 300.8 63.7531 302.392 63.0085C303.985 62.2638 305.376 60.9556 305.9 59.2851C306.424 57.6147 305.92 55.5819 304.489 54.5555C303.42 53.7907 302.029 53.6498 300.941 52.9253C299.993 52.2812 299.368 51.2548 298.461 50.5504C297.312 49.6447 295.78 49.3428 294.61 48.4774C293.3 47.4912 292.554 45.9213 292.131 44.3314C291.707 42.7414 291.526 41.0911 291.062 39.5212C290.437 37.4281 289.369 31.6318 288.24 29.7801C287.131 27.9487 285.599 26.097 284.672 29.6996Z" fill="white"/>
<path d="M289.046 58.3994C289.691 58.3793 293.401 56.0648 293.582 54.8169C293.784 53.5691 292.897 52.2005 289.207 52.1804C285.518 52.1603 284.389 53.4081 284.651 54.9981C284.913 56.6082 288.401 58.4195 289.046 58.3994Z" fill="#F76F87"/>
<path d="M284.672 54.2129C284.631 54.4544 284.631 54.7362 284.672 54.9978C284.914 56.5878 288.421 58.3991 289.066 58.379C289.53 58.3589 291.566 57.1714 292.756 56.0444C289.893 56.6884 286.768 56.1853 284.672 54.2129Z" fill="#E74F61"/>
<path d="M291.244 52.7439C290.094 52.6232 288.945 52.6031 287.796 52.6836C287.433 52.7037 287.091 52.7238 286.748 52.8244C286.587 52.8647 286.405 52.9653 286.425 53.1263C286.446 53.2873 286.647 53.3678 286.808 53.388C288.764 53.6496 290.82 53.1867 292.715 53.7502C292.735 53.4282 292.493 53.1263 292.211 52.9653C291.889 52.8244 291.566 52.7641 291.244 52.7439Z" fill="#FCB4C4"/>
<path fill-rule="evenodd" clip-rule="evenodd" d="M343.76 54.2937C343.296 54.2132 342.772 54.1327 342.248 54.0522C341.986 54.012 341.704 53.9717 341.421 53.9516C341.139 53.9113 340.857 53.8912 340.554 53.8509C339.385 53.7101 338.135 53.5893 336.885 53.4484C336.583 53.4082 336.26 53.388 335.958 53.3478C335.797 53.3277 335.656 53.3075 335.494 53.2874C335.333 53.2673 335.192 53.2673 335.031 53.2472C334.406 53.2069 333.801 53.1666 333.216 53.1264C332.047 53.0459 330.938 52.9654 329.991 52.905C329.708 52.8849 329.426 52.8648 329.144 52.8446C328.862 52.8446 328.6 52.8245 328.317 52.8245C327.773 52.8044 327.249 52.8044 326.725 52.7842C325.677 52.7641 324.669 52.744 323.661 52.7037C322.653 52.6635 321.645 52.7037 320.596 52.7239C319.548 52.744 318.479 52.7641 317.351 52.7842C316.201 52.7842 314.911 52.905 313.561 52.9855C312.875 53.0258 312.19 53.0861 311.484 53.1264C311.141 53.1465 310.778 53.1667 310.416 53.2069L309.891 53.2472L309.367 53.3075C307.956 53.4685 306.525 53.6296 305.174 53.7704C304.509 53.8509 303.844 53.9113 303.219 53.9918C302.594 54.0925 301.989 54.173 301.424 54.2736C300.557 54.4145 298.32 54.7566 297.453 54.8975C296.505 55.0384 298.118 54.9176 301.283 54.4547C301.727 54.3943 302.211 54.3138 302.735 54.2535C302.997 54.2132 303.259 54.173 303.541 54.1327C303.823 54.1126 304.106 54.0723 304.388 54.0522C305.557 53.9314 306.847 53.8107 308.258 53.6698C308.601 53.6296 308.964 53.5893 309.307 53.549L309.831 53.4887C310.012 53.4685 310.174 53.4685 310.355 53.4484C311.061 53.4082 311.766 53.3478 312.492 53.3075C313.218 53.2673 313.944 53.2069 314.71 53.1465C315.476 53.1063 316.242 53.0258 317.068 53.0258C318.137 53.0056 319.246 52.9855 320.354 52.9654C321.463 52.9654 322.592 52.905 323.721 52.9654C324.83 53.0056 325.939 53.0258 327.027 53.0459C328.096 53.0861 329.144 53.0861 330.132 53.1666C331.624 53.2673 333.398 53.3679 335.232 53.4887C337.067 53.6497 338.942 53.8509 340.696 54.0321C341.139 54.0723 341.562 54.1126 341.986 54.173C342.409 54.2333 342.812 54.2937 343.195 54.334C343.982 54.4346 344.687 54.5554 345.332 54.6359C346.602 54.817 347.53 54.9579 347.913 54.9981C348.84 55.1591 347.55 54.8774 343.76 54.2937Z" fill="white"/>
<path fill-rule="evenodd" clip-rule="evenodd" d="M343.74 62.9482C343.276 62.8073 342.772 62.6664 342.248 62.5054C341.986 62.4249 341.724 62.3645 341.442 62.284C341.159 62.2236 340.877 62.1431 340.595 62.0827C339.446 61.801 338.216 61.4991 336.986 61.1972C336.684 61.1167 336.382 61.0563 336.059 60.9758C335.898 60.9355 335.757 60.8953 335.595 60.855C335.434 60.8148 335.293 60.7947 335.132 60.7544C334.527 60.6337 333.922 60.5129 333.337 60.3921C332.168 60.1506 331.08 59.9494 330.132 59.7481C329.85 59.6877 329.568 59.6475 329.306 59.5871C329.023 59.5468 328.761 59.5066 328.499 59.4663C327.955 59.3858 327.431 59.3053 326.927 59.2248C325.899 59.0638 324.891 58.9028 323.883 58.7619C322.875 58.5808 321.867 58.5003 320.838 58.3795C319.79 58.2588 318.722 58.138 317.593 58.0172C316.444 57.8764 315.153 57.816 313.782 57.7355C313.097 57.6952 312.412 57.655 311.686 57.6147C311.323 57.5946 310.98 57.5745 310.617 57.5543L310.073 57.5141L309.529 57.494C308.097 57.4738 306.666 57.4336 305.295 57.4135C304.61 57.4135 303.945 57.3732 303.32 57.3933C302.674 57.4135 302.07 57.4135 301.485 57.4336C300.598 57.4537 298.32 57.5141 297.433 57.5342C296.465 57.5543 298.098 57.6348 301.324 57.5946C301.787 57.5946 302.271 57.5946 302.795 57.5745C303.057 57.5745 303.34 57.5745 303.602 57.5745C303.884 57.5745 304.166 57.5946 304.469 57.5946C305.658 57.6348 306.968 57.6751 308.38 57.7153C308.743 57.7153 309.085 57.7355 309.448 57.7355L309.972 57.7556C310.154 57.7556 310.335 57.7757 310.496 57.7959C311.202 57.8361 311.928 57.8764 312.654 57.9367C313.379 57.977 314.125 58.0172 314.891 58.0776C315.657 58.138 316.444 58.1581 317.25 58.2588C318.318 58.3795 319.427 58.5003 320.536 58.621C321.645 58.7619 322.774 58.8625 323.883 59.0437C324.991 59.2248 326.1 59.3858 327.169 59.567C328.237 59.728 329.265 59.889 330.233 60.0902C331.725 60.372 333.458 60.7142 335.273 61.0563C337.067 61.4588 338.942 61.9016 340.655 62.3041C341.079 62.4048 341.502 62.5054 341.926 62.606C342.329 62.7268 342.732 62.8274 343.115 62.928C343.881 63.1293 344.587 63.3306 345.191 63.5117C346.421 63.8538 347.328 64.1155 347.711 64.2161C348.679 64.4778 347.429 64.035 343.74 62.9482Z" fill="white"/>
<path fill-rule="evenodd" clip-rule="evenodd" d="M343.78 72.4474C343.357 72.2461 342.893 72.0247 342.409 71.7832C342.167 71.6624 341.925 71.5618 341.663 71.4411C341.401 71.3404 341.139 71.2197 340.877 71.0989C339.809 70.636 338.66 70.153 337.51 69.67C337.228 69.5492 336.946 69.4284 336.664 69.3077L336.24 69.1265C336.099 69.0662 335.958 69.0259 335.817 68.9655C335.253 68.7441 334.688 68.5429 334.124 68.3416C333.035 67.9391 332.007 67.5567 331.12 67.2146C330.858 67.1139 330.596 67.0133 330.334 66.9328C330.071 66.8523 329.809 66.7718 329.567 66.6712C329.063 66.5101 328.559 66.3491 328.076 66.1881C327.088 65.8661 326.14 65.5642 325.193 65.2422C324.245 64.9202 323.278 64.6787 322.29 64.3969C321.302 64.1151 320.274 63.8334 319.185 63.5315C318.097 63.2094 316.847 62.9478 315.536 62.6459C314.871 62.505 314.206 62.344 313.52 62.183C313.178 62.1025 312.835 62.022 312.492 61.9616L311.968 61.8409L311.444 61.7402C310.053 61.4786 308.662 61.2371 307.331 60.9956C306.666 60.8748 306.021 60.7541 305.396 60.6534C304.771 60.5729 304.186 60.4723 303.622 60.3918C302.755 60.271 300.537 59.9691 299.671 59.8484C298.743 59.7075 300.295 60.0496 303.44 60.5327C303.884 60.593 304.368 60.6736 304.872 60.7541C305.134 60.7943 305.396 60.8346 305.658 60.8748C305.92 60.9352 306.202 60.9754 306.485 61.0358C307.634 61.2572 308.904 61.4987 310.254 61.7604C310.597 61.8207 310.94 61.8811 311.283 61.9616L311.787 62.0623C311.948 62.1025 312.129 62.1428 312.291 62.183C312.976 62.344 313.661 62.4849 314.367 62.6459C315.073 62.8069 315.778 62.9679 316.524 63.1289C317.25 63.3101 318.016 63.451 318.802 63.6925C319.83 63.9742 320.879 64.2761 321.947 64.578C323.016 64.8799 324.084 65.1617 325.132 65.524C326.181 65.8661 327.229 66.2083 328.237 66.5504C329.245 66.8925 330.233 67.1944 331.14 67.5366C332.531 68.0397 334.184 68.6636 335.877 69.2876C337.571 69.9718 339.305 70.6964 340.917 71.3404C341.321 71.5014 341.724 71.6624 342.107 71.8235C342.49 72.0046 342.853 72.1656 343.195 72.3266C343.901 72.6486 344.546 72.9505 345.131 73.2122C346.28 73.7354 347.127 74.138 347.469 74.299C348.336 74.7216 347.207 74.0776 343.78 72.4474Z" fill="white"/>
<path fill-rule="evenodd" clip-rule="evenodd" d="M326.785 77.8213C326.261 77.3383 325.656 76.7748 324.991 76.2112C324.648 75.9295 324.306 75.6276 323.963 75.3257C323.6 75.0439 323.237 74.742 322.874 74.4401C321.423 73.2527 319.891 72.1659 318.721 71.3407C317.33 70.3746 316.06 69.5696 314.75 68.8048C314.105 68.4023 313.44 68.04 312.774 67.6576C312.109 67.2752 311.383 66.9129 310.637 66.5104C309.871 66.1079 309.004 65.7054 308.077 65.2827C307.613 65.0613 307.13 64.8802 306.646 64.6588C306.162 64.4575 305.678 64.2361 305.174 64.055C304.186 63.6726 303.178 63.2701 302.211 62.9682C301.727 62.8072 301.263 62.626 300.82 62.4852C300.376 62.3443 299.933 62.2034 299.529 62.0826C298.904 61.8612 297.271 61.4386 296.626 61.2575C296.284 61.1568 296.384 61.2172 296.868 61.3983C297.11 61.4788 297.453 61.5996 297.856 61.7204C298.279 61.8612 298.783 62.0021 299.348 62.2034C299.67 62.304 300.013 62.4248 300.396 62.5455C300.578 62.6059 300.779 62.6663 300.961 62.7468C301.162 62.8273 301.364 62.8877 301.565 62.9682C302.392 63.2701 303.299 63.6122 304.287 63.9946C306.243 64.7594 308.138 65.5645 310.315 66.6513C313.177 68.0802 316.242 69.9922 318.661 71.6627C319.125 71.9847 319.629 72.3269 320.153 72.6891C320.677 73.0715 321.221 73.4741 321.766 73.8766C322.854 74.7018 323.983 75.5873 324.971 76.4326C325.213 76.654 325.475 76.8553 325.717 77.0565C325.959 77.2578 326.181 77.459 326.402 77.6603C326.846 78.0427 327.249 78.405 327.592 78.727C328.277 79.3912 328.781 79.8742 329.003 80.0755C329.245 80.317 329.225 80.2566 328.862 79.8742C328.68 79.6931 328.438 79.4113 328.096 79.0691C327.934 78.888 327.733 78.7069 327.531 78.4855C327.289 78.2842 327.047 78.0628 326.785 77.8213Z" fill="white"/>
<path fill-rule="evenodd" clip-rule="evenodd" d="M239.514 55.6821C241.227 55.4406 243.485 55.2595 245.743 55.0179C246.872 54.8972 248.001 54.8167 249.069 54.7362C250.138 54.6557 251.126 54.5752 251.993 54.5148C252.255 54.4947 252.497 54.4745 252.739 54.4544C252.98 54.4343 253.243 54.4343 253.484 54.4142C253.968 54.394 254.452 54.3739 254.916 54.3336C255.863 54.2934 256.77 54.233 257.678 54.1928C258.585 54.1324 259.492 54.1324 260.44 54.0921C261.387 54.072 262.355 54.0318 263.363 54.0116C264.391 53.9714 265.56 53.9714 266.79 53.9714C268.02 53.9714 269.31 53.9311 270.6 53.9512C271.89 53.9714 273.181 53.9915 274.41 54.0116C275.015 54.0318 275.62 54.0318 276.205 54.0519C276.769 54.072 277.333 54.1123 277.837 54.1324C278.644 54.1726 280.68 54.2531 281.486 54.2733C282.353 54.3135 280.902 54.1324 277.999 53.9714C277.596 53.9512 277.132 53.9311 276.668 53.8909C276.426 53.8707 276.184 53.8707 275.942 53.8506C275.68 53.8506 275.438 53.8305 275.156 53.8305C274.088 53.7902 272.918 53.7701 271.628 53.7299C270.983 53.7299 270.358 53.6896 269.713 53.7097C269.068 53.7097 268.423 53.7299 267.778 53.7299C267.112 53.7299 266.447 53.75 265.762 53.75C265.076 53.75 264.371 53.75 263.625 53.7701C262.657 53.7902 261.649 53.8104 260.641 53.8506C259.633 53.8707 258.605 53.8909 257.597 53.9512C256.589 53.9915 255.581 54.0519 254.613 54.0921C253.646 54.1324 252.698 54.1726 251.811 54.2531C250.46 54.3739 248.848 54.4947 247.195 54.6355C245.542 54.8167 243.828 55.0179 242.235 55.1789C241.832 55.2192 241.449 55.2595 241.066 55.3198C240.683 55.3802 240.32 55.4205 239.977 55.4808C239.272 55.5815 238.627 55.662 238.042 55.7425C236.893 55.9035 236.046 56.0242 235.704 56.0645C234.877 56.1651 236.066 56.1249 239.514 55.6821Z" fill="white"/>
<path fill-rule="evenodd" clip-rule="evenodd" d="M231.833 61.9013C232.297 61.7805 232.821 61.6396 233.345 61.4987C233.607 61.4182 233.889 61.3578 234.171 61.2975C234.454 61.2371 234.736 61.1767 235.038 61.0962C236.208 60.8346 237.478 60.5528 238.728 60.271C239.05 60.1905 239.352 60.1301 239.675 60.0496C239.836 60.0094 239.977 59.9893 240.139 59.949C240.3 59.9289 240.461 59.8886 240.602 59.8685C241.227 59.7477 241.832 59.6471 242.437 59.5264C243.626 59.305 244.735 59.1037 245.703 58.9226C245.985 58.8622 246.267 58.8219 246.55 58.7616C246.832 58.7213 247.114 58.6811 247.376 58.6408C247.92 58.5603 248.465 58.4798 248.989 58.4194C250.037 58.2785 251.065 58.1377 252.093 57.9766C253.122 57.8156 254.15 57.7351 255.198 57.6345C256.267 57.5339 257.355 57.4131 258.504 57.3125C259.674 57.1716 260.984 57.1313 262.375 57.0307C263.06 56.9905 263.786 56.9502 264.512 56.8898C264.875 56.8697 265.238 56.8496 265.6 56.8295L266.145 56.7892L266.689 56.7691C268.161 56.7489 269.612 56.7087 271.003 56.6886C271.709 56.6886 272.374 56.6483 273.019 56.6684C273.664 56.6886 274.289 56.7087 274.874 56.7087C275.781 56.7288 278.1 56.7892 279.007 56.8093C279.995 56.8294 278.341 56.6684 275.055 56.5678C274.592 56.5477 274.088 56.5276 273.543 56.5074C273.281 56.5074 273.019 56.5074 272.717 56.4873C272.435 56.4873 272.132 56.4873 271.83 56.4873C270.62 56.4873 269.29 56.5074 267.838 56.5276C267.475 56.5276 267.112 56.5477 266.75 56.5477H266.205C266.024 56.5477 265.842 56.5678 265.661 56.5879C264.935 56.6282 264.209 56.6886 263.464 56.7288C262.718 56.7691 261.972 56.8295 261.186 56.8697C260.399 56.9301 259.593 56.9502 258.766 57.0508C257.678 57.1515 256.549 57.2722 255.4 57.3729C254.251 57.4936 253.101 57.554 251.972 57.7351C250.844 57.8961 249.715 58.037 248.606 58.198C247.517 58.359 246.449 58.4798 245.461 58.6811C243.949 58.9628 242.155 59.305 240.3 59.6672C238.486 60.0698 236.591 60.5327 234.817 60.9553C234.373 61.0559 233.95 61.1566 233.526 61.2773C233.103 61.3981 232.7 61.5189 232.317 61.6195C231.551 61.8409 230.825 62.0421 230.2 62.2233C228.93 62.5855 228.003 62.8472 227.619 62.9478C226.712 63.2095 228.043 62.9277 231.833 61.9013Z" fill="white"/>
<path fill-rule="evenodd" clip-rule="evenodd" d="M248.424 65.3632C249.735 64.8801 251.509 64.4172 253.283 63.8738C254.15 63.5921 255.057 63.3908 255.883 63.1694C256.73 62.948 257.496 62.7468 258.182 62.5857C258.383 62.5254 258.585 62.4851 258.766 62.4247C258.968 62.3845 259.149 62.3442 259.351 62.304C259.734 62.2235 260.117 62.143 260.48 62.0625C261.226 61.9015 261.951 61.7404 262.657 61.5794C263.383 61.4184 264.109 61.2977 264.854 61.1568C265.6 61.0159 266.366 60.875 267.193 60.7341C268.02 60.5731 268.947 60.4524 269.935 60.2914C270.419 60.2109 270.923 60.1303 271.447 60.07C271.709 60.0297 271.951 59.9895 272.213 59.9492C272.475 59.909 272.737 59.8687 272.999 59.8486C274.047 59.7278 275.075 59.6071 276.063 59.4863C276.567 59.4259 277.031 59.3656 277.495 59.3253C277.958 59.285 278.402 59.2649 278.825 59.2247C279.47 59.1844 281.123 59.0435 281.769 59.0033C282.474 58.963 281.285 58.9228 278.926 59.0637C278.583 59.0838 278.241 59.1039 277.837 59.124C277.636 59.1442 277.454 59.1442 277.233 59.1643C277.031 59.1844 276.809 59.2045 276.608 59.2247C275.741 59.3052 274.793 59.3857 273.765 59.5064C273.241 59.5668 272.737 59.6071 272.233 59.6876C271.729 59.7681 271.205 59.8486 270.681 59.9291C270.156 60.0096 269.612 60.0901 269.068 60.1706C268.524 60.2511 267.939 60.3316 267.354 60.4524C266.588 60.5932 265.782 60.7341 264.975 60.875C264.169 61.0159 263.342 61.1367 262.556 61.3379C261.75 61.5191 260.964 61.6801 260.177 61.8411C259.411 62.0021 258.665 62.1631 257.96 62.3442C256.891 62.626 255.641 62.9681 254.331 63.3103C253.041 63.6927 251.71 64.1153 250.481 64.5179C250.178 64.6185 249.876 64.699 249.573 64.7996C249.291 64.9003 249.009 65.0009 248.727 65.1015C248.182 65.3028 247.678 65.4839 247.235 65.6248C246.348 65.9468 245.703 66.1682 245.441 66.2688C244.816 66.4902 245.763 66.2688 248.424 65.3632Z" fill="white"/>
<path fill-rule="evenodd" clip-rule="evenodd" d="M244.332 75.5872C245.763 74.8023 247.678 73.8966 249.594 72.9305C250.541 72.4475 251.529 72.0047 252.436 71.6022C253.343 71.1796 254.21 70.7972 254.936 70.455C255.158 70.3544 255.379 70.2538 255.581 70.1531C255.803 70.0525 256.004 69.972 256.226 69.8714C256.65 69.6902 257.053 69.5091 257.476 69.3481C258.283 69.0059 259.069 68.6638 259.875 68.3418C260.661 67.9996 261.468 67.6977 262.294 67.3757C263.121 67.0537 263.968 66.7116 264.855 66.3694C265.762 66.0071 266.79 65.6449 267.879 65.2423C268.967 64.8599 270.096 64.4172 271.245 64.0146C272.394 63.6322 273.543 63.2499 274.652 62.8675C275.197 62.6863 275.741 62.5052 276.245 62.3442C276.769 62.1832 277.253 62.0423 277.737 61.9014C278.462 61.68 280.297 61.1366 281.023 60.9152C281.809 60.6938 280.458 60.9555 277.837 61.7203C277.454 61.8209 277.051 61.9417 276.628 62.0624C276.406 62.1228 276.184 62.1832 275.963 62.2435C275.741 62.324 275.499 62.3844 275.257 62.4649C274.289 62.7668 273.241 63.109 272.092 63.4712C271.527 63.6524 270.943 63.8335 270.378 64.0549C269.814 64.2562 269.249 64.4776 268.665 64.6788C268.08 64.9002 267.496 65.1015 266.891 65.3229C266.286 65.5442 265.641 65.7656 264.996 66.0273C264.149 66.3493 263.262 66.6914 262.375 67.0537C261.488 67.3958 260.581 67.738 259.714 68.1003C258.827 68.4625 257.96 68.8449 257.113 69.1871C256.267 69.5493 255.44 69.8714 254.694 70.2336C253.525 70.777 252.174 71.4211 250.743 72.0852C249.352 72.7897 247.9 73.5343 246.57 74.2186C246.227 74.3998 245.904 74.5608 245.582 74.7218C245.259 74.9029 244.957 75.0639 244.675 75.2249C244.09 75.5469 243.546 75.8488 243.062 76.1105C242.114 76.6338 241.409 77.0162 241.106 77.1772C240.421 77.5596 241.449 77.1168 244.332 75.5872Z" fill="white"/>
</g>
<defs>
<linearGradient id="paint0_linear_65_221" x1="239.311" y1="51.1836" x2="239.311" y2="250.023" gradientUnits="userSpaceOnUse">
<stop stop-color="#EDAE49" stop-opacity="0.91578"/>
<stop offset="0.729167" stop-color="#EDAE49" stop-opacity="0.0104167"/>
</linearGradient>
<clipPath id="clip0_65_221">
<rect width="216.435" height="151.329" fill="white" transform="translate(131.76 0.154297)"/>
</clipPath>
</defs>
</svg>
