<svg width="479" height="279" viewBox="0 0 479 279" fill="none" xmlns="http://www.w3.org/2000/svg">
<rect y="91.501" width="478.621" height="186.522" rx="50" fill="url(#paint0_linear_65_116)"/>
<path d="M193.548 242.436C193.548 239.988 194.1 237.792 195.204 235.848C196.308 233.88 197.808 232.344 199.704 231.24C201.624 230.136 203.748 229.584 206.076 229.584C208.812 229.584 211.2 230.244 213.24 231.564C215.28 232.884 216.768 234.756 217.704 237.18H213.78C213.084 235.668 212.076 234.504 210.756 233.688C209.46 232.872 207.9 232.464 206.076 232.464C204.324 232.464 202.752 232.872 201.36 233.688C199.968 234.504 198.876 235.668 198.084 237.18C197.292 238.668 196.896 240.42 196.896 242.436C196.896 244.428 197.292 246.18 198.084 247.692C198.876 249.18 199.968 250.332 201.36 251.148C202.752 251.964 204.324 252.372 206.076 252.372C207.9 252.372 209.46 251.976 210.756 251.184C212.076 250.368 213.084 249.204 213.78 247.692H217.704C216.768 250.092 215.28 251.952 213.24 253.272C211.2 254.568 208.812 255.216 206.076 255.216C203.748 255.216 201.624 254.676 199.704 253.596C197.808 252.492 196.308 250.968 195.204 249.024C194.1 247.08 193.548 244.884 193.548 242.436ZM221.357 245.064C221.357 243.048 221.765 241.284 222.581 239.772C223.397 238.236 224.513 237.048 225.929 236.208C227.369 235.368 228.965 234.948 230.717 234.948C232.445 234.948 233.945 235.32 235.217 236.064C236.489 236.808 237.437 237.744 238.061 238.872V235.272H241.373V255H238.061V251.328C237.413 252.48 236.441 253.44 235.145 254.208C233.873 254.952 232.385 255.324 230.681 255.324C228.929 255.324 227.345 254.892 225.929 254.028C224.513 253.164 223.397 251.952 222.581 250.392C221.765 248.832 221.357 247.056 221.357 245.064ZM238.061 245.1C238.061 243.612 237.761 242.316 237.161 241.212C236.561 240.108 235.745 239.268 234.713 238.692C233.705 238.092 232.589 237.792 231.365 237.792C230.141 237.792 229.025 238.08 228.017 238.656C227.009 239.232 226.205 240.072 225.605 241.176C225.005 242.28 224.705 243.576 224.705 245.064C224.705 246.576 225.005 247.896 225.605 249.024C226.205 250.128 227.009 250.98 228.017 251.58C229.025 252.156 230.141 252.444 231.365 252.444C232.589 252.444 233.705 252.156 234.713 251.58C235.745 250.98 236.561 250.128 237.161 249.024C237.761 247.896 238.061 246.588 238.061 245.1ZM226.721 233.148C226.889 231.924 227.285 230.988 227.909 230.34C228.557 229.692 229.361 229.368 230.321 229.368C230.777 229.368 231.161 229.452 231.473 229.62C231.809 229.764 232.205 229.98 232.661 230.268C232.997 230.508 233.297 230.7 233.561 230.844C233.825 230.964 234.113 231.024 234.425 231.024C234.833 231.024 235.181 230.892 235.469 230.628C235.757 230.364 235.937 229.98 236.009 229.476H237.881C237.737 230.676 237.341 231.6 236.693 232.248C236.045 232.896 235.241 233.22 234.281 233.22C233.825 233.22 233.417 233.148 233.057 233.004C232.721 232.836 232.337 232.596 231.905 232.284C231.521 232.044 231.209 231.864 230.969 231.744C230.753 231.624 230.489 231.564 230.177 231.564C229.769 231.564 229.421 231.696 229.133 231.96C228.869 232.224 228.701 232.62 228.629 233.148H226.721ZM264.909 244.38C264.909 245.004 264.873 245.664 264.801 246.36H249.033C249.153 248.304 249.813 249.828 251.013 250.932C252.237 252.012 253.713 252.552 255.441 252.552C256.857 252.552 258.033 252.228 258.969 251.58C259.929 250.908 260.601 250.02 260.985 248.916H264.513C263.985 250.812 262.929 252.36 261.345 253.56C259.761 254.736 257.793 255.324 255.441 255.324C253.569 255.324 251.889 254.904 250.401 254.064C248.937 253.224 247.785 252.036 246.945 250.5C246.105 248.94 245.685 247.14 245.685 245.1C245.685 243.06 246.093 241.272 246.909 239.736C247.725 238.2 248.865 237.024 250.329 236.208C251.817 235.368 253.521 234.948 255.441 234.948C257.313 234.948 258.969 235.356 260.409 236.172C261.849 236.988 262.953 238.116 263.721 239.556C264.513 240.972 264.909 242.58 264.909 244.38ZM261.525 243.696C261.525 242.448 261.249 241.38 260.697 240.492C260.145 239.58 259.389 238.896 258.429 238.44C257.493 237.96 256.449 237.72 255.297 237.72C253.641 237.72 252.225 238.248 251.049 239.304C249.897 240.36 249.237 241.824 249.069 243.696H261.525ZM276.217 255.324C274.705 255.324 273.349 255.072 272.149 254.568C270.949 254.04 270.001 253.32 269.305 252.408C268.609 251.472 268.225 250.404 268.153 249.204H271.537C271.633 250.188 272.089 250.992 272.905 251.616C273.745 252.24 274.837 252.552 276.181 252.552C277.429 252.552 278.413 252.276 279.133 251.724C279.853 251.172 280.213 250.476 280.213 249.636C280.213 248.772 279.829 248.136 279.061 247.728C278.293 247.296 277.105 246.876 275.497 246.468C274.033 246.084 272.833 245.7 271.897 245.316C270.985 244.908 270.193 244.32 269.521 243.552C268.873 242.76 268.549 241.728 268.549 240.456C268.549 239.448 268.849 238.524 269.449 237.684C270.049 236.844 270.901 236.184 272.005 235.704C273.109 235.2 274.369 234.948 275.785 234.948C277.969 234.948 279.733 235.5 281.077 236.604C282.421 237.708 283.141 239.22 283.237 241.14H279.961C279.889 240.108 279.469 239.28 278.701 238.656C277.957 238.032 276.949 237.72 275.677 237.72C274.501 237.72 273.565 237.972 272.869 238.476C272.173 238.98 271.825 239.64 271.825 240.456C271.825 241.104 272.029 241.644 272.437 242.076C272.869 242.484 273.397 242.82 274.021 243.084C274.669 243.324 275.557 243.6 276.685 243.912C278.101 244.296 279.253 244.68 280.141 245.064C281.029 245.424 281.785 245.976 282.409 246.72C283.057 247.464 283.393 248.436 283.417 249.636C283.417 250.716 283.117 251.688 282.517 252.552C281.917 253.416 281.065 254.1 279.961 254.604C278.881 255.084 277.633 255.324 276.217 255.324Z" fill="#401604"/>
<g clip-path="url(#clip0_65_116)">
<path d="M278.061 146.621C278.061 146.621 278.737 149.286 278.061 150.956C277.386 152.623 277.048 153.955 278.061 156.624C279.07 159.293 279.746 162.292 279.408 164.957C279.07 167.626 277.723 169.623 280.417 170.291C283.112 170.96 282.44 174.627 284.125 174.627C285.81 174.627 306.031 174.627 306.031 174.627C306.031 174.627 308.053 173.294 307.378 170.626C306.702 167.96 299.626 162.957 295.918 163.625C292.211 164.293 293.558 161.958 293.558 160.626C293.558 159.293 292.211 158.625 290.86 158.625C289.513 158.625 293.22 155.626 291.873 154.289C290.526 152.957 289.513 153.955 289.175 152.957C288.837 151.959 292.207 139.29 293.892 136.621C295.577 133.956 298.271 129.954 298.608 125.619C298.946 121.287 296.248 123.952 296.248 123.952L278.061 146.621Z" fill="#744A37"/>
<path d="M213.693 169.623C213.693 169.623 222.455 170.288 226.5 170.622C230.545 170.956 236.947 170.956 235.262 166.954C233.577 162.953 229.532 158.287 228.523 158.287C227.513 158.287 209.652 151.287 209.652 151.287L197.859 141.951L195.161 151.617L189.431 157.949L180.331 161.951L179.656 167.285L213.693 169.623Z" fill="#32252A"/>
<path d="M292.886 0.606164C295.867 1.4725 303.67 6.60835 306.365 7.60678C309.059 8.6052 310.41 9.60751 309.059 12.6067C307.712 15.6058 312.09 23.9428 311.419 26.6079C310.747 29.2768 307.374 30.6093 306.365 32.9403C305.351 35.2751 306.365 41.9416 307.374 46.2733C308.383 50.6089 307.036 55.2747 307.036 58.2738C307.036 61.273 309.396 69.2759 308.721 71.2766C308.045 73.2774 308.045 73.2773 308.045 73.2773C308.045 73.2773 310.068 76.2765 308.721 78.2772C307.374 80.278 305.014 84.2794 305.014 84.2794C305.014 84.2794 307.712 88.2809 307.712 89.2793C307.712 90.2777 309.059 94.9474 309.059 94.9474C309.059 94.9474 308.383 100.281 308.049 102.282C307.712 104.283 308.725 113.949 306.702 116.283C304.68 118.618 299.963 123.618 298.612 125.619C297.265 127.62 293.896 133.622 291.535 135.619C289.175 137.619 287.49 142.953 285.134 144.954C282.778 146.955 273.678 151.286 268.958 152.953C264.241 154.62 245.371 154.62 245.371 154.62C245.371 154.62 235.596 156.954 235.262 158.621C234.924 160.288 222.793 161.62 218.748 160.288C214.703 158.955 202.572 151.286 200.549 147.953C198.526 144.62 198.526 145.952 198.526 145.952C198.526 145.952 201.221 150.618 197.851 153.621C194.481 156.62 189.427 159.954 189.427 159.954C189.427 159.954 170.557 167.288 167.521 168.621C164.489 169.953 168.196 158.955 169.881 156.62C169.881 156.62 167.859 150.618 168.872 146.287C169.881 141.955 169.881 137.953 171.232 134.286C172.579 130.619 176.286 121.617 180.669 118.952C185.052 116.283 196.508 104.617 196.508 104.617C196.508 104.617 222.455 87.2825 226.838 86.9484C231.221 86.6143 238.298 79.9477 244.699 79.2795C251.1 78.6113 248.744 80.278 250.091 76.9447C251.438 73.6115 253.798 67.279 257.168 66.6108C260.538 65.9426 261.885 68.6116 261.547 65.9426C261.209 63.2737 257.506 62.9435 259.191 57.2754C260.875 51.6073 263.236 41.9416 261.547 38.6084C259.862 35.2751 256.155 32.9403 256.493 26.942C256.83 20.9437 259.862 9.94161 259.862 9.94161C259.862 9.94161 262.222 8.27498 264.579 6.27425C266.939 4.27352 274.016 0.606164 278.061 0.940266C282.102 1.27437 287.16 -1.06046 292.886 0.606164Z" fill="#47312E"/>
<path d="M306.369 7.60693C306.369 7.60693 310.414 8.27514 312.436 11.6084C314.459 14.9416 316.477 21.6082 319.175 22.6105C321.873 23.6128 322.883 29.277 324.905 30.9436C326.928 32.6102 329.622 39.6108 328.95 42.61C328.275 45.6092 325.918 53.9462 326.59 55.943C327.265 57.9438 324.905 61.9452 322.545 62.6095C320.185 63.2739 316.477 63.9421 314.121 60.6088C311.761 57.2755 307.382 51.2734 306.031 46.6076C304.684 41.9418 308.391 36.2737 309.063 31.9381C309.738 27.6026 310.41 23.2709 308.387 17.9369C306.369 12.6068 305.693 9.94177 306.369 7.60693Z" fill="#A04E32"/>
<path d="M259.862 9.94189C259.862 9.94189 256.155 9.94189 253.794 15.2759C251.434 20.6099 247.393 26.278 245.033 28.6089C242.672 30.9437 242.001 35.6095 239.978 36.942C237.956 38.2746 238.969 49.2766 239.978 52.944C240.988 56.6114 241.325 61.2771 243.686 61.9453C246.046 62.6135 253.794 61.9453 257.839 53.9463C261.885 45.9434 264.916 41.2776 261.547 36.9459C258.177 32.6104 257.839 18.6091 257.839 18.6091C259.862 12.941 259.862 12.941 259.862 9.94189Z" fill="#A04E32"/>
<path d="M284.8 3.93943C286.147 3.27123 286.485 0.606179 289.183 1.6046C291.881 2.60302 290.196 3.60533 291.205 4.27354C292.215 4.94174 300.643 8.275 302.665 11.9385C304.688 15.6058 305.697 21.2739 301.652 23.6087C297.607 25.9436 291.543 18.6089 286.151 19.6073C280.759 20.6057 275.705 25.9397 271.659 25.9397C267.614 25.9397 262.898 24.9413 262.898 19.6073C262.898 14.2733 269.975 7.27269 275.705 5.94016C275.705 5.94016 277.052 2.60691 279.75 2.60691C282.44 2.60691 284.8 3.93943 284.8 3.93943Z" fill="#744A37"/>
<path d="M286.147 19.6071C289.78 20.4035 292.211 25.2752 293.9 28.6085C295.584 31.9417 296.594 33.6084 298.616 32.944C300.639 32.2758 304.684 33.6122 303.333 36.2773C301.986 38.9462 301.648 39.2764 300.973 41.6113C300.297 43.9461 300.973 49.9444 295.243 49.2801C289.513 48.6119 285.472 46.615 285.472 46.615C285.472 46.615 279.742 49.9483 276.372 49.6142C273.003 49.2801 268.62 45.9468 270.305 43.2818C270.305 43.2818 267.607 37.6137 267.607 35.613C267.607 33.6122 269.291 34.2804 271.989 33.2781C274.684 32.2797 278.057 21.6117 280.413 20.6094C282.778 19.6071 283.115 18.9428 286.147 19.6071Z" fill="#AF754E"/>
<path d="M295.247 49.2765C295.247 49.2765 293.562 52.6097 291.539 52.6097C289.517 52.6097 288.508 54.9446 286.147 54.6105C283.787 54.2764 279.408 51.2772 279.408 51.2772C279.408 51.2772 275.701 51.6113 274.691 50.609C273.682 49.6067 284.8 44.9409 284.8 44.9409L295.247 49.2765Z" fill="#855B3F"/>
<path d="M297.945 13.6094C299.629 13.6094 302.324 15.6101 301.99 17.6108C301.652 19.6116 299.574 20.61 297.945 20.2798C296.26 19.934 294.913 17.9449 295.247 16.2783C295.584 14.6078 296.594 13.6094 297.945 13.6094Z" fill="#A17867"/>
<path d="M298.173 14.7666C299.276 14.7666 301.043 16.0758 300.823 17.3889C300.603 18.702 299.241 19.3547 298.173 19.1371C297.069 18.9118 296.185 17.6065 296.405 16.5148C296.625 15.4232 297.289 14.7666 298.173 14.7666Z" fill="#47312E"/>
<path d="M270.984 14.6075C272.638 14.9339 274.016 16.6083 274.016 17.9408C274.016 19.2733 271.994 21.6082 270.309 21.6082C268.624 21.6082 266.601 19.2733 266.939 17.6067C267.277 15.9401 269.299 14.2734 270.984 14.6075Z" fill="#A17867"/>
<path d="M270.804 15.8042C271.888 16.0178 272.795 17.1173 272.795 17.9914C272.795 18.8655 271.467 20.4 270.36 20.4C269.252 20.4 267.925 18.8693 268.149 17.7738C268.369 16.6783 269.696 15.5827 270.804 15.8042Z" fill="#47312E"/>
<path d="M239.303 115.619C239.303 115.619 234.249 119.287 236.271 121.621C238.294 123.956 240.316 125.957 240.316 125.957C240.316 125.957 242.339 139.958 244.699 143.292C247.059 146.625 250.429 150.292 250.091 151.959C249.753 153.625 251.1 155.292 251.1 155.292C251.1 155.292 250.429 159.958 252.114 161.624C253.798 163.291 253.798 163.291 253.798 163.291C253.798 163.291 251.438 168.625 251.776 170.96C252.114 173.291 254.47 177.292 254.47 177.292C254.47 177.292 264.241 177.626 267.948 177.96C271.656 178.295 273.678 176.628 273.678 176.628C273.678 176.628 277.048 173.629 274.687 170.96C272.327 168.291 272.327 168.291 272.327 168.291C272.327 168.291 270.642 163.291 268.62 162.957C266.597 162.623 265.588 155.622 266.935 153.622C268.282 151.621 267.944 147.953 264.575 144.954C261.205 141.955 259.858 135.619 259.52 130.619C259.183 125.619 249.412 125.953 246.376 121.618C243.348 117.286 243.01 114.951 239.303 115.619Z" fill="#744A37"/>
<path d="M166.849 168.621C166.849 168.621 169.881 162.619 174.264 161.62C178.647 160.622 190.103 157.953 192.801 158.287C195.495 158.621 197.517 159.285 197.517 159.285C197.517 159.285 202.572 155.952 208.639 157.953C214.707 159.954 219.761 161.62 219.423 163.287C219.086 164.954 217.739 164.285 217.739 164.285C217.739 164.285 217.401 167.953 213.694 169.619C209.986 171.286 207.964 170.284 207.964 170.284C207.964 170.284 204.256 171.282 201.896 170.952C199.536 170.618 196.728 168.838 196.728 168.838C198.307 167.657 195.027 169.289 191.45 169.95C188.803 170.447 168.534 170.622 166.849 168.621Z" fill="#744A37"/>
<path d="M151.348 170.287C151.914 173.08 161.795 171.286 164.827 169.289C167.859 167.288 166.849 168.621 166.849 168.621C166.849 168.621 167.187 165.621 167.859 163.621C168.534 161.62 169.881 156.62 169.881 156.62C169.881 156.62 167.859 162.622 165.165 163.621C162.47 164.623 160.448 164.289 157.75 165.621C155.056 166.954 151.011 168.621 151.348 170.287Z" fill="#32252A"/>
<path d="M296.708 15.7767C296.708 16.3284 297.159 16.7752 297.717 16.7752C298.275 16.7752 298.73 16.3284 298.73 15.7767C298.73 15.2251 298.279 14.7744 297.717 14.7744C297.159 14.7744 296.708 15.2212 296.708 15.7767Z" fill="white"/>
<path d="M268.062 16.7753C268.062 17.3269 268.514 17.7737 269.072 17.7737C269.629 17.7737 270.085 17.3269 270.085 16.7753C270.085 16.2236 269.633 15.7769 269.072 15.7769C268.514 15.7769 268.062 16.2236 268.062 16.7753Z" fill="white"/>
<path d="M296.032 48.8686C296.001 48.8686 296.005 48.8024 296.032 48.8024C296.064 48.7985 296.064 48.8686 296.032 48.8686Z" fill="#47312E"/>
<path d="M285.295 44.8593C287.282 45.8577 289.195 46.9338 291.288 47.7225C293.385 48.5111 295.62 48.9113 297.686 49.7698C297.831 49.8281 297.815 50.1777 297.638 50.1777C293.424 50.1933 288.472 47.6875 285.185 45.2128C285.079 45.1312 285.134 44.7777 285.295 44.8593Z" fill="#47312E"/>
<path d="M284.635 45.9006C282.338 47.0039 280.013 47.9946 277.641 48.9309C275.846 49.6418 273.745 50.3877 271.832 49.8399C271.507 49.7467 271.558 49.0357 271.856 48.9347C273.926 48.2393 276.227 48.4103 278.356 47.8159C280.492 47.2215 282.53 46.227 284.545 45.3179C284.804 45.2013 284.863 45.7918 284.635 45.9006Z" fill="#47312E"/>
<path d="M287.907 50.2362C286.795 51.6852 284.058 51.7202 282.672 50.6752C282.295 50.3916 282.448 49.2339 283.049 49.4475C283.885 49.7428 284.596 50.0847 285.515 50.0769C286.304 50.0691 287.011 49.7389 287.769 49.7039C288.009 49.6884 288.001 50.1119 287.907 50.2362Z" fill="#47312E"/>
<path d="M285.307 34.9449C285.307 34.9449 288.339 33.1112 290.699 34.9449C293.059 36.7786 292.722 41.2773 291.539 41.2773C291.539 41.2773 291.539 41.9416 290.699 43.4451C289.855 44.9447 286.823 46.6113 285.476 46.6113C284.129 46.6113 280.253 43.7792 279.577 42.7769C278.902 41.7746 279.07 41.6114 279.07 41.6114C279.07 41.6114 277.386 41.1103 277.892 37.9441C278.356 35.0265 281.6 32.7771 285.307 34.9449Z" fill="#47312E"/>
<path d="M291.535 41.1997C291.119 41.46 290.683 41.4134 290.251 41.1881C289.878 40.9899 289.148 40.3956 288.924 41.0948C288.822 41.4095 288.488 41.6154 288.189 41.4367C287.879 41.2502 287.785 40.7141 287.879 40.3994C288.079 39.739 288.559 39.2378 289.273 39.5914C289.933 39.9177 290.648 41.0443 291.441 40.8307C291.622 40.7802 291.661 41.122 291.535 41.1997Z" fill="#32252A"/>
<path d="M278.866 41.3785C279.608 41.46 280.512 41.3551 280.865 40.617C281.089 40.1508 281.148 39.5254 281.541 39.1563C282.542 38.22 283.005 39.91 283.049 40.6092C283.068 40.9278 282.848 41.4523 282.467 41.4406C282.047 41.429 281.937 40.8928 281.925 40.582C281.918 40.3995 281.859 40.1159 281.596 40.1042C281.352 40.0964 281.238 40.4228 281.14 40.6054C281.01 40.854 280.955 41.0871 280.739 41.2813C280.186 41.7864 279.502 41.5494 278.862 41.4134C278.85 41.4134 278.85 41.3746 278.866 41.3785Z" fill="#32252A"/>
<path d="M295.094 9.92239C295.149 8.95893 294.732 7.9372 293.821 7.78569C292.769 7.61087 291.704 8.42282 291.131 9.22699C290.624 9.93405 290.385 10.7499 290.373 11.5774C290.291 12.0008 290.275 12.4398 290.338 12.8866C290.385 13.1974 290.656 13.85 291.088 13.7879C291.092 13.7879 291.1 13.7879 291.104 13.784C291.245 13.885 291.402 13.9472 291.571 13.9316C292.745 13.7995 293.97 13.3217 294.666 12.3233C295.046 11.7755 295.262 10.7499 295.094 9.92239Z" fill="#AF754E"/>
<path d="M278.03 11.3363C277.845 10.1087 277.197 9.02476 276.003 8.54692C275.108 8.18951 274.134 8.17785 273.274 8.62462C272.221 9.1685 271.911 10.9517 272.618 11.8879C273.56 13.135 274.872 13.9431 276.478 13.978C276.8 13.9858 277.048 13.8421 277.236 13.6245C277.339 13.5623 277.433 13.4885 277.511 13.4069C278.01 12.8864 278.136 12.0239 278.03 11.3363Z" fill="#AF754E"/>
<path d="M281.969 166.854C281.827 168.489 280.92 169.923 279.294 170.455C278.564 170.692 278.411 169.083 279.055 168.944C280.158 168.703 281.187 167.86 281.372 166.721C281.45 166.205 282.008 166.387 281.969 166.854Z" fill="#744A37"/>
<path d="M279.864 164.452C279.196 165.668 278.98 166.947 278.882 168.306C278.843 168.858 278.756 168.819 279.055 169.068C279.345 169.312 280.272 169.363 280.653 169.456C280.445 169.953 280.241 170.455 280.033 170.952C279.286 169.852 278.423 168.605 278.183 167.288C278.12 166.954 278.474 165.964 278.933 166.461C279.762 167.354 280.241 168.668 280.912 169.697C281.219 170.167 281.073 171.403 280.292 171.193C279.64 171.018 278.642 170.967 278.136 170.47C277.68 170.023 277.727 169.278 277.778 168.71C277.936 167.001 278.729 165.501 279.616 164.06C279.793 163.773 279.966 164.262 279.864 164.452Z" fill="#32252A"/>
<path d="M305.886 169.009C307.625 170.338 308.646 171.946 309.118 174.075C309.2 174.46 308.89 175.21 308.415 174.848C307.303 174.001 305.43 173.061 304.872 171.725C304.491 170.816 304.735 169.433 305.807 169.114C305.968 169.068 306.133 169.095 306.255 169.215C307.417 170.354 309.051 172.191 308.819 173.916C308.788 174.157 308.556 174.475 308.277 174.359C307.669 174.106 307.5 173.298 307.189 172.77C306.754 172.024 306.223 171.352 305.63 170.723C305.78 170.758 305.929 170.789 306.078 170.824C305.697 170.921 307.248 172.23 307.311 172.284C307.845 172.743 308.379 173.201 308.917 173.656C308.686 173.912 308.45 174.172 308.214 174.429C307.881 172.583 307.017 170.734 305.756 169.328C305.666 169.223 305.717 168.881 305.886 169.009Z" fill="#32252A"/>
<path d="M306.887 173.085C306.624 176.313 301.487 175.109 299.339 174.895C299.048 174.868 298.919 174.581 298.872 174.328C298.035 170.101 293.774 168.85 290.526 166.861C290.377 166.768 290.334 166.294 290.589 166.325C293.566 166.714 296.578 168 298.4 170.459C299.178 171.508 299.307 172.895 300.439 173.508C301.385 174.021 306.082 174.258 306.471 172.988C306.565 172.654 306.915 172.739 306.887 173.085Z" fill="#32252A"/>
<path d="M298.915 174.561C297.528 173.842 296.386 172.774 294.858 172.265C294.516 172.133 294.167 172.075 293.805 172.082C293.931 172.144 294.061 172.203 294.186 172.265C294.618 172.564 295.266 172.747 295.761 172.914C296.79 173.267 297.819 173.419 298.907 173.318C298.84 173.881 298.777 174.444 298.71 175.011C296.943 174.324 295.176 173.64 293.409 172.952C292.737 172.692 292.969 171.014 293.75 171.317C295.518 171.997 297.289 172.673 299.056 173.353C299.7 173.597 299.563 174.977 298.86 175.046C297.202 175.206 290.754 174.001 292.894 171.169C293.833 169.93 295.435 170.928 296.472 171.511C297.611 172.148 298.785 173.03 299.044 174.367C299.064 174.429 299.021 174.615 298.915 174.561Z" fill="#32252A"/>
<path d="M295.801 173.978C295.51 176.923 289.273 176.379 287.314 176.313C285.276 176.247 284.333 176.441 283.116 174.961C282.507 174.219 282.193 173.085 281.631 172.257C280.677 170.843 279.463 169.577 278.364 168.267C278.238 168.116 278.226 167.448 278.564 167.619C281.156 168.912 281.702 170.905 283.477 172.89C284.898 174.475 286.634 174.701 288.622 174.716C290.161 174.732 294.367 174.977 295.545 173.745C295.687 173.605 295.812 173.873 295.801 173.978Z" fill="#32252A"/>
<path d="M257.804 171.923C258.492 172.533 258.947 172.98 259.297 173.846C259.63 174.67 259.87 175.621 259.811 176.515C259.764 177.199 259.344 177.972 258.547 177.894C257.722 177.812 257.349 176.861 257.062 176.224C256.559 175.101 255.33 172.199 257.207 171.608C257.859 171.402 258.531 171.806 258.849 172.366C259.379 173.294 259.12 174.382 258.806 175.33C258.617 175.897 257.938 176.088 257.604 175.532C257.137 174.763 256.654 173.217 257.608 172.587C257.855 172.424 258.095 172.486 258.26 172.731C258.507 173.108 258.492 173.555 258.723 173.935C258.323 174.001 257.922 174.071 257.522 174.137C257.545 173.776 257.58 173.659 257.631 173.795C257.667 173.873 257.608 173.862 257.447 173.761C257.651 172.848 257.824 173.951 257.875 174.118C257.918 174.254 258.547 176.076 258.798 175.808C258.692 176.002 258.586 176.2 258.48 176.398C258.633 175.862 258.366 174.945 258.236 174.425C258.052 173.702 257.895 172.906 257.612 172.218C257.557 172.106 257.639 171.779 257.804 171.923Z" fill="#32252A"/>
<path d="M253.186 165.144C251.807 167.727 251.748 170.812 252.844 173.516C253.402 174.895 254.317 176.433 255.919 176.666C257.239 176.86 258.982 176.445 260.326 176.34C260.903 176.293 260.903 177.637 260.294 177.668C258.641 177.754 255.99 178.469 254.509 177.575C253.315 176.857 252.483 175 252.043 173.764C250.983 170.792 251.509 167.719 253.103 165.039C253.147 164.957 253.213 165.089 253.186 165.144Z" fill="#32252A"/>
<path d="M263.22 166.908C261.429 164.802 259.572 167.964 259.756 169.643C259.862 170.61 260.294 171.546 260.553 172.478C260.977 174.009 261.052 175.482 260.95 177.059C260.883 178.092 259.874 177.805 260.004 176.841C260.341 174.335 259.238 172.346 258.92 169.965C258.794 169.04 258.825 167.991 259.269 167.145C260.141 165.478 262.171 165.311 263.267 166.81C263.291 166.849 263.259 166.954 263.22 166.908Z" fill="#32252A"/>
<path d="M271.754 167.7C273.769 169.099 276.419 170.521 276.31 173.318C276.223 175.548 274.189 177.793 272.033 178.244C271.616 178.329 271.664 177.684 271.84 177.49C272.343 176.938 272.901 176.589 273.466 176.123C274.739 175.074 275.285 174.464 275.053 172.805C274.762 170.742 273.062 169.34 271.711 167.801C271.687 167.77 271.699 167.661 271.754 167.7Z" fill="#32252A"/>
<path d="M270.462 166.143C271.876 168.038 272.795 170.136 273.101 172.487C273.329 174.243 273.525 176.83 272.151 178.209C271.224 179.142 268.746 179.72 267.568 179.083C265.961 178.209 265.828 174.697 265.565 173.135C265.506 172.794 265.867 172.37 266.079 172.829C266.605 173.975 266.896 175.529 267.552 176.585C268.463 178.054 270.442 177.595 271.412 176.348C273.454 173.726 271.703 169.072 270.238 166.469C270.144 166.31 270.281 165.906 270.462 166.143Z" fill="#32252A"/>
<path d="M265.329 167.844C266.02 169.755 266.589 171.523 266.743 173.567C266.837 174.852 267.167 176.698 266.507 177.887C265.372 179.942 260.871 179.969 260.216 177.572C260.125 177.246 260.2 176.519 260.706 176.667C261.924 177.02 262.643 177.611 264.037 177.242C265.541 176.842 265.572 176.391 265.572 174.961C265.568 172.692 265.396 170.307 264.944 168.081C264.893 167.825 265.199 167.487 265.329 167.844Z" fill="#32252A"/>
<path d="M268.973 178.411C269.284 177.863 269.449 177.241 269.578 176.632C269.641 176.332 269.692 176.029 269.712 175.723C269.728 175.458 269.606 175.066 269.684 174.841C269.645 174.635 269.661 174.635 269.735 174.845C269.818 174.949 269.83 175.066 269.775 175.19C269.786 175.489 269.673 175.816 269.637 176.115C269.559 176.764 269.535 177.412 269.523 178.065C269.5 179.405 267.996 179.374 268.074 178.03C268.113 177.35 268.667 171.484 270.352 173.131C270.988 173.753 270.776 175.171 270.658 175.936C270.478 177.106 269.979 177.968 269.284 178.904C269.021 179.262 268.844 178.64 268.973 178.411Z" fill="#32252A"/>
<path d="M262.921 177.133C263.161 177.02 263.082 176.189 263.082 175.936C263.086 175.334 263.008 174.755 262.866 174.168C263.275 174.18 263.683 174.188 264.088 174.199C263.844 175.089 263.719 176.021 263.722 176.946C263.73 177.708 263.993 178.609 263.444 179.246C263.291 179.425 263.122 179.549 262.874 179.456C262.839 179.444 262.804 179.429 262.772 179.417C262.454 179.3 262.285 178.881 262.246 178.578C262.006 176.818 262.352 175.089 262.953 173.434C263.239 172.645 263.986 173.053 264.107 173.691C264.347 174.949 264.394 176.297 263.946 177.517C263.73 178.104 263.008 178.76 262.721 177.824C262.643 177.595 262.666 177.249 262.921 177.133Z" fill="#32252A"/>
<path d="M262.23 156.792C259.116 159.258 254.965 158.536 251.741 156.45C250.013 155.331 248.717 152.798 250.299 151.034C250.645 150.649 250.9 151.29 250.755 151.59C249.372 154.437 252.33 155.801 254.446 156.593C257.031 157.565 259.658 158.124 262.132 156.508C262.277 156.407 262.332 156.71 262.23 156.792Z" fill="#32252A"/>
<path d="M256.257 152.176C249.588 152.393 245.724 147.728 243.529 141.92C242.343 138.784 241.541 135.471 240.882 132.192C240.454 130.051 240.194 127.973 239.012 126.077C238.05 124.535 236.581 123.42 235.509 121.967C235.336 121.734 235.458 120.731 235.906 121.007C240.599 123.897 241.172 128.649 242.268 133.513C243.886 140.688 247.102 151.348 256.273 151.546C256.555 151.554 256.54 152.164 256.257 152.176Z" fill="#32252A"/>
<path d="M250.877 155.303C250.861 155.303 250.861 155.268 250.877 155.268C250.892 155.272 250.888 155.303 250.877 155.303Z" fill="#32252A"/>
<path d="M251.183 155.315C251.273 158.357 252.039 160.342 253.645 162.856C253.987 163.392 254.301 163.734 254.317 164.367C254.344 165.521 253.272 166.795 252.931 167.836C251.843 171.158 253.092 173.539 254.611 176.383C254.729 176.6 254.639 177.276 254.27 177.008C251.179 174.775 251.1 169.984 252.251 166.737C253.237 163.955 251.426 162.642 250.723 160.097C250.26 158.423 250.252 156.787 250.802 155.144C250.908 154.822 251.175 155.101 251.183 155.315Z" fill="#32252A"/>
<path d="M260.082 11.3908C259.976 11.3908 259.984 11.1577 260.086 11.1577C260.196 11.1577 260.188 11.3908 260.082 11.3908Z" fill="#32252A"/>
<path d="M259.591 10.3649C260.428 12.5055 260.007 14.4868 259.383 16.639C259.03 17.8511 258.499 19.1409 258.484 20.4268C258.464 22.0818 259.222 23.3716 259.729 24.8401C260.329 26.5844 260.494 28.3287 260.816 30.1352C261.468 33.7637 264.374 36.5336 264.771 40.1466C264.971 41.9842 264.52 43.8256 262.788 44.6959C262.199 44.995 262.179 43.7907 262.368 43.5187C264.936 39.8786 260.97 36.6269 259.984 33.1421C259.187 30.3139 259.163 27.4585 258.217 24.6342C257.596 22.7772 257.168 21.2116 257.506 19.2497C258.02 16.2583 260.117 13.6515 259.363 10.4931C259.332 10.3493 259.513 10.159 259.591 10.3649Z" fill="#32252A"/>
<path d="M306.007 8.07695C306.608 12.6145 309.004 16.3596 310.08 20.734C310.712 23.3058 311.085 26.4604 309.318 28.6592C308.866 29.2225 308.533 28.3989 308.599 27.9949C309.342 23.4496 308.383 20.0891 306.907 15.8196C306.031 13.2944 305.363 10.7381 305.752 8.06918C305.776 7.88271 305.98 7.89436 306.007 8.07695Z" fill="#32252A"/>
<path d="M230.53 162.77C230.926 162.207 231.236 161.772 231.959 161.605C232.646 161.446 233.345 161.772 233.766 162.316C234.692 163.52 234.378 165.591 233.07 166.411C233.031 165.797 232.996 165.183 232.957 164.565C233.251 164.643 233.565 164.658 233.852 164.546C233.789 164.569 233.915 164.861 233.793 164.604C233.628 164.262 233.279 164.052 232.921 163.951C231.928 163.679 231.04 164.297 230.168 163.606C229.909 163.4 229.952 162.914 230.113 162.673C231.189 161.053 233.986 161.589 234.85 163.178C235.254 163.928 235.364 164.88 235.022 165.672C234.594 166.675 233.514 166.83 232.556 166.496C231.802 166.236 232.026 164.857 232.603 164.554C234.025 163.808 231.515 162.533 230.73 163.178C230.506 163.365 230.435 162.902 230.53 162.77Z" fill="#32252A"/>
<path d="M216.647 167.463C214.526 170.307 211.302 171.573 207.759 171.375C207.551 171.364 207.402 171.181 207.343 170.995C207.021 169.973 206.687 169.064 206.734 167.988C206.742 167.852 206.895 167.518 207.072 167.708C207.551 168.225 207.571 168.671 207.905 169.274C208.466 170.28 209.696 169.946 210.752 169.759C212.806 169.39 214.828 168.423 216.553 167.277C216.666 167.207 216.694 167.401 216.647 167.463Z" fill="#32252A"/>
<path d="M209.578 162.339C210.418 163.108 210.779 163.788 210.654 164.997C210.516 166.317 209.751 167.456 208.513 168.015C205.815 169.235 202.67 167.258 202.124 164.515C202.065 164.227 202.344 163.47 202.733 163.847C203.938 165.024 204.806 166.426 206.687 166.554C208.71 166.69 210.787 164.678 209.377 162.708C209.291 162.58 209.393 162.168 209.578 162.339Z" fill="#32252A"/>
<path d="M211.082 160.758C212.566 160.96 213.281 162.18 213.265 163.602C213.261 163.94 213.049 164.41 212.637 164.289C211.039 163.819 209.079 163.093 208.211 161.585C208.117 161.422 208.105 160.878 208.415 160.913C209.193 161.003 209.845 161.465 210.52 161.826C211.294 162.246 212.103 162.595 212.932 162.895C212.723 163.124 212.511 163.353 212.303 163.582C212.35 162.704 211.757 161.826 211.019 161.36C210.846 161.255 210.795 160.719 211.082 160.758Z" fill="#32252A"/>
<path d="M207.39 167.409C207.763 168.217 207.948 169.009 208.144 169.868C208.223 170.214 208.081 170.691 207.744 170.855C204.056 172.642 197.533 172.451 195.31 168.392C195.145 168.092 195.177 167.071 195.762 167.304C197.647 168.05 198.978 169.402 201.06 169.856C203.223 170.326 205.438 170.085 207.496 169.285C207.363 169.615 207.229 169.942 207.096 170.272C206.966 169.347 206.876 168.512 206.919 167.583C206.931 167.288 207.225 167.055 207.39 167.409Z" fill="#32252A"/>
<path d="M194.301 164.561C195.243 165.882 196.473 167.762 195.267 169.328C193.527 171.585 188.323 171.239 185.936 171.107C183.689 170.979 181.459 170.664 179.208 170.594C176.934 170.524 174.727 170.909 172.465 171.006C169.477 171.134 166.724 170.439 165.027 167.852C164.587 167.176 165.322 165.548 165.958 166.519C168.817 170.886 175.552 168.504 179.864 168.71C182.268 168.827 197.498 170.963 193.99 164.996C193.869 164.779 194.073 164.242 194.301 164.561Z" fill="#32252A"/>
<path d="M216.831 167.21C216.062 167.867 215.095 168.38 214.196 168.85C213.273 169.332 212.346 169.891 211.388 170.295C209.99 170.889 209.813 167.999 210.65 167.381C212.181 166.247 214.565 165.078 216.529 165.26C217.389 165.342 217.338 166.779 216.831 167.21Z" fill="#47312E"/>
<path d="M209.205 163.314C209.735 164.332 209.609 165.567 208.788 166.403C207.975 167.226 206.852 167.114 205.815 166.853C204.464 166.515 204.688 164.534 205.281 163.625C205.969 162.572 207.245 162.56 208.333 162.906C209.028 163.128 209.126 164.254 209.004 164.829C208.867 165.49 208.435 166.057 207.712 165.878C207.414 165.808 207.111 165.688 206.801 165.692C206.711 165.692 206.62 165.723 206.538 165.727C206.507 165.727 206.483 165.742 206.467 165.773C206.169 166.053 206.208 165.734 206.581 164.818C206.408 164.608 206.236 164.394 206.063 164.184C206.522 164.332 207.013 164.503 207.5 164.429C207.665 164.406 207.744 164.313 207.885 164.27C207.94 164.246 207.975 164.204 207.991 164.142C207.791 164.173 207.771 164.363 207.936 164.717C207.775 164.235 207.803 163.578 208.176 163.194C208.482 162.879 208.973 162.879 209.205 163.314Z" fill="#47312E"/>
<path d="M206.609 170.19C203.977 172.253 199.689 171.185 197.356 169.083C196.539 168.345 196.944 165.14 198.306 165.987C199.634 166.811 200.84 167.615 202.391 167.976C203.769 168.302 205.163 168.337 206.522 168.784C207.025 168.951 206.958 169.919 206.609 170.19Z" fill="#47312E"/>
<path d="M195.734 135.992C199.01 141.19 202.89 149.158 201.17 155.447C201.067 155.824 200.639 156.046 200.47 155.568C199.567 152.996 199.697 150.129 199.088 147.464C198.244 143.765 196.967 140.106 195.216 136.734C195.023 136.368 195.377 135.424 195.734 135.992Z" fill="#32252A"/>
<path d="M261.857 132.402C260.027 131.641 258.409 130.595 257.082 129.119C255.852 127.752 254.47 126.073 254.27 124.201C254.207 123.634 254.596 122.383 255.365 122.993C256.63 123.999 257.309 125.883 258.389 127.115C259.575 128.467 260.911 129.717 262.352 130.797C262.835 131.159 262.631 132.724 261.857 132.402Z" fill="#32252A"/>
<path d="M296.197 128.303C295.321 130.549 294.614 133.035 292.937 134.845C292.289 135.545 291.351 135.957 290.722 136.625C289.462 137.961 289.073 140.405 288.37 142.044C287.647 143.719 286.948 145.871 285.256 146.826C284.329 147.347 283.159 147.471 282.181 147.907C280.696 148.571 279.542 149.69 278.014 150.214C277.531 150.377 277.57 149.561 277.7 149.336C278.717 147.522 280.453 146.516 282.385 145.762C284.372 144.989 285.484 144.748 286.505 142.646C287.117 141.388 287.644 140.09 288.131 138.777C288.786 137.017 289.069 136.034 290.416 134.81C292.741 132.701 294.528 130.953 295.969 128.097C296.095 127.868 296.26 128.14 296.197 128.303Z" fill="#32252A"/>
<path d="M291.174 105.437C292.093 108.133 292.502 112.469 291.567 115.2C290.679 117.783 288.095 118.401 285.613 118.704C286.045 118.086 286.477 117.468 286.909 116.851C286.693 120.705 285.185 124.1 282.416 126.816C281.592 127.624 281.254 125.759 281.45 125.277C282.574 122.492 284.325 119.862 284.411 116.792C284.431 115.992 284.804 115.04 285.707 114.939C288.798 114.594 289.631 113.37 290.126 110.215C290.373 108.638 290.31 107.072 290.73 105.515C290.793 105.274 291.068 105.13 291.174 105.437Z" fill="#32252A"/>
</g>
<defs>
<linearGradient id="paint0_linear_65_116" x1="239.311" y1="91.501" x2="239.311" y2="278.023" gradientUnits="userSpaceOnUse">
<stop stop-color="#EDAE49" stop-opacity="0.91578"/>
<stop offset="0.729167" stop-color="#EDAE49" stop-opacity="0.0104167"/>
</linearGradient>
<clipPath id="clip0_65_116">
<rect width="177.723" height="179.483" fill="white" transform="translate(151.329)"/>
</clipPath>
</defs>
</svg>
