<svg width="540" height="581" viewBox="0 0 540 581" fill="none" xmlns="http://www.w3.org/2000/svg">
<path d="M506.599 440.682C506.969 523.836 442.486 573.662 401.693 579.271C350.938 586.263 328.854 556.771 280.26 553.018L280.034 550.832C280.034 512.678 411.469 497.85 411.469 402.549C411.469 352.166 368.844 332.821 338.013 338.018C290.921 346 270.031 392.67 270.031 392.67C270.031 392.67 249.14 345.979 202.049 338.018C171.217 332.801 128.592 352.145 128.592 402.549C128.592 497.85 260.028 512.678 260.028 550.832L259.802 553.018C211.208 556.792 189.124 586.263 138.369 579.271C97.5755 573.662 33.072 523.815 33.4631 440.682C34.1011 299.679 170.065 222.568 270.051 222.568C369.997 222.568 505.94 299.679 506.599 440.682ZM269.99 179.362C308.519 179.362 339.762 139.208 339.762 89.6708C339.762 40.1539 308.519 0 269.99 0C231.46 0 200.217 40.1539 200.217 89.6914C200.238 139.208 231.46 179.362 269.99 179.362ZM509.562 60.5917C476.199 41.2881 429.108 60.4061 404.389 103.303C379.67 146.2 386.689 196.624 420.052 215.927C453.415 235.231 500.506 216.113 525.225 173.216C549.944 130.32 542.926 79.8952 509.562 60.5917ZM119.948 215.948C153.311 196.645 160.33 146.22 135.611 103.323C110.892 60.4267 63.8007 41.2881 30.4375 60.5917C-2.92564 79.8952 -9.94405 130.32 14.7747 173.216C39.4936 216.113 86.5642 235.252 119.948 215.948Z" fill="url(#paint0_linear)"/>
<path opacity="0.2" d="M73.371 320.798L60.5073 457.469L125.999 541.407L190.646 501.356L189.782 495.313C173.81 485.063 158.251 472.937 146.786 457.51L146.684 457.49C67.0935 398.115 123.652 271.817 123.673 271.817C104.758 285.408 87.5725 301.783 73.371 320.798Z" fill="#F9DF74"/>
<path opacity="0.2" d="M466.67 320.798L479.533 457.469L414.042 541.407L349.394 501.356L350.259 495.313C366.23 485.063 381.79 472.937 393.254 457.51L393.357 457.49C472.947 398.115 416.388 271.817 416.368 271.817C435.282 285.408 452.468 301.783 466.67 320.798Z" fill="#F9DF74"/>
<path d="M123.673 271.776C79.6279 336.492 84.9586 456.644 176.445 486.115C214.007 513.833 259.987 528.249 259.987 550.832L259.76 553.018C211.167 556.792 189.082 586.263 138.327 579.271C97.5342 573.662 33.0306 523.815 33.4217 440.682C33.751 365.592 72.4655 308.63 123.673 271.776ZM416.326 271.776C460.372 336.492 455.041 456.644 363.555 486.115C325.993 513.833 280.013 528.249 280.013 550.832L280.239 553.018C328.833 556.792 350.917 586.263 401.672 579.271C442.465 573.662 506.969 523.815 506.578 440.682C506.249 365.592 467.534 308.63 416.326 271.776Z" fill="#EDAE49"/>
<defs>
<linearGradient id="paint0_linear" x1="269.997" y1="26.4906" x2="269.997" y2="839.777" gradientUnits="userSpaceOnUse">
<stop offset="0.2586" stop-color="#EDAE49"/>
<stop offset="0.8604" stop-color="#61210F"/>
</linearGradient>
</defs>
</svg>
