<svg width="56" height="60" viewBox="0 0 56 60" fill="none" xmlns="http://www.w3.org/2000/svg">
<g clip-path="url(#clip0)">
<path d="M52.537 45.5608C52.5755 54.1578 45.8884 59.3092 41.658 59.8891C36.3946 60.6119 34.1044 57.5629 29.0651 57.1748L29.0417 56.9488C29.0417 53.0043 42.6719 51.4712 42.6719 41.6183C42.6719 36.4094 38.2516 34.4094 35.0542 34.9467C30.1708 35.7719 28.0044 40.597 28.0044 40.597C28.0044 40.597 25.8379 35.7697 20.9545 34.9467C17.7571 34.4072 13.3368 36.4073 13.3368 41.6183C13.3368 51.4712 26.967 53.0043 26.967 56.9488L26.9436 57.1748C21.9043 57.565 19.6141 60.6119 14.3507 59.8891C10.1203 59.3092 3.43112 54.1557 3.47167 45.5608C3.53784 30.9829 17.6376 23.0107 28.0065 23.0107C38.3711 23.0107 52.4687 30.9829 52.537 45.5608ZM28.0001 18.5437C31.9957 18.5437 35.2357 14.3923 35.2357 9.27079C35.2357 4.15139 31.9957 0 28.0001 0C24.0045 0 20.7645 4.15139 20.7645 9.27292C20.7666 14.3923 24.0045 18.5437 28.0001 18.5437ZM52.8444 6.26439C49.3845 4.26866 44.5011 6.2452 41.9376 10.6802C39.3742 15.1151 40.1021 20.3284 43.5619 22.3241C47.0218 24.3198 51.9053 22.3433 54.4687 17.9083C57.0321 13.4733 56.3042 8.26013 52.8444 6.26439ZM12.4404 22.3262C15.9002 20.3305 16.6281 15.1173 14.0646 10.6823C11.5012 6.24733 6.61776 4.26866 3.15791 6.26439C-0.301931 8.26013 -1.02976 13.4733 1.53364 17.9083C4.09705 22.3433 8.9784 24.322 12.4404 22.3262Z" fill="url(#paint0_linear)"/>
<path opacity="0.2" d="M7.60914 33.1663L6.27515 47.2963L13.0668 55.9744L19.7709 51.8336L19.6813 51.2089C18.025 50.1492 16.4114 48.8955 15.2225 47.3006L15.2118 47.2985C6.95815 41.1599 12.8235 28.1023 12.8256 28.1023C10.8641 29.5074 9.08187 31.2004 7.60914 33.1663Z" fill="#F9DF74"/>
<path opacity="0.2" d="M48.3952 33.1663L49.7292 47.2963L42.9375 55.9744L36.2334 51.8336L36.323 51.2089C37.9793 50.1492 39.5929 48.8955 40.7818 47.3006L40.7925 47.2985C49.0461 41.1599 43.1808 28.1023 43.1787 28.1023C45.1402 29.5074 46.9224 31.2004 48.3952 33.1663Z" fill="#F9DF74"/>
<path d="M12.8256 28.0981C8.25795 34.789 8.81076 47.2112 18.2981 50.2581C22.1934 53.1237 26.9616 54.6141 26.9616 56.9489L26.9381 57.1749C21.8988 57.5651 19.6086 60.612 14.3452 59.8892C10.1149 59.3092 3.42569 54.1557 3.46625 45.5608C3.5004 37.7975 7.51519 31.9084 12.8256 28.0981ZM43.1744 28.0981C47.742 34.789 47.1892 47.2112 37.7019 50.2581C33.8066 53.1237 29.0384 54.6141 29.0384 56.9489L29.0619 57.1749C34.1012 57.5651 36.3914 60.612 41.6548 59.8892C45.8851 59.3092 52.5743 54.1557 52.5337 45.5608C52.4996 37.7975 48.4848 31.9084 43.1744 28.0981Z" fill="#EDAE49"/>
</g>
<defs>
<linearGradient id="paint0_linear" x1="28.0008" y1="2.73878" x2="28.0008" y2="86.822" gradientUnits="userSpaceOnUse">
<stop offset="0.2586" stop-color="#EDAE49"/>
<stop offset="0.8604" stop-color="#61210F"/>
</linearGradient>
<clipPath id="clip0">
<rect width="56" height="60" fill="white"/>
</clipPath>
</defs>
</svg>
