<svg width="479" height="266" viewBox="0 0 479 266" fill="none" xmlns="http://www.w3.org/2000/svg">
<rect y="60.1226" width="478.621" height="205.878" rx="50" fill="url(#paint0_linear_65_272)"/>
<path d="M192.148 243.252C189.82 243.252 187.696 242.712 185.776 241.632C183.856 240.528 182.332 239.004 181.204 237.06C180.1 235.092 179.548 232.884 179.548 230.436C179.548 227.988 180.1 225.792 181.204 223.848C182.332 221.88 183.856 220.356 185.776 219.276C187.696 218.172 189.82 217.62 192.148 217.62C194.5 217.62 196.636 218.172 198.556 219.276C200.476 220.356 201.988 221.868 203.092 223.812C204.196 225.756 204.748 227.964 204.748 230.436C204.748 232.908 204.196 235.116 203.092 237.06C201.988 239.004 200.476 240.528 198.556 241.632C196.636 242.712 194.5 243.252 192.148 243.252ZM192.148 240.408C193.9 240.408 195.472 240 196.864 239.184C198.28 238.368 199.384 237.204 200.176 235.692C200.992 234.18 201.4 232.428 201.4 230.436C201.4 228.42 200.992 226.668 200.176 225.18C199.384 223.668 198.292 222.504 196.9 221.688C195.508 220.872 193.924 220.464 192.148 220.464C190.372 220.464 188.788 220.872 187.396 221.688C186.004 222.504 184.9 223.668 184.084 225.18C183.292 226.668 182.896 228.42 182.896 230.436C182.896 232.428 183.292 234.18 184.084 235.692C184.9 237.204 186.004 238.368 187.396 239.184C188.812 240 190.396 240.408 192.148 240.408ZM226.569 223.272V243H223.293V240.084C222.669 241.092 221.793 241.884 220.665 242.46C219.561 243.012 218.337 243.288 216.993 243.288C215.457 243.288 214.077 242.976 212.853 242.352C211.629 241.704 210.657 240.744 209.937 239.472C209.241 238.2 208.893 236.652 208.893 234.828V223.272H212.133V234.396C212.133 236.34 212.625 237.84 213.609 238.896C214.593 239.928 215.937 240.444 217.641 240.444C219.393 240.444 220.773 239.904 221.781 238.824C222.789 237.744 223.293 236.172 223.293 234.108V223.272H226.569ZM236.096 225.972V237.6C236.096 238.56 236.3 239.244 236.708 239.652C237.116 240.036 237.824 240.228 238.832 240.228H241.244V243H238.292C236.468 243 235.1 242.58 234.188 241.74C233.276 240.9 232.82 239.52 232.82 237.6V225.972H230.264V223.272H232.82V218.304H236.096V223.272H241.244V225.972H236.096ZM248.489 226.476C249.065 225.348 249.881 224.472 250.937 223.848C252.017 223.224 253.325 222.912 254.861 222.912V226.296H253.997C250.325 226.296 248.489 228.288 248.489 232.272V243H245.213V223.272H248.489V226.476ZM267.247 243.324C265.399 243.324 263.719 242.904 262.207 242.064C260.719 241.224 259.543 240.036 258.679 238.5C257.839 236.94 257.419 235.14 257.419 233.1C257.419 231.084 257.851 229.308 258.715 227.772C259.603 226.212 260.803 225.024 262.315 224.208C263.827 223.368 265.519 222.948 267.391 222.948C269.263 222.948 270.955 223.368 272.467 224.208C273.979 225.024 275.167 226.2 276.031 227.736C276.919 229.272 277.363 231.06 277.363 233.1C277.363 235.14 276.907 236.94 275.995 238.5C275.107 240.036 273.895 241.224 272.359 242.064C270.823 242.904 269.119 243.324 267.247 243.324ZM267.247 240.444C268.423 240.444 269.527 240.168 270.559 239.616C271.591 239.064 272.419 238.236 273.043 237.132C273.691 236.028 274.015 234.684 274.015 233.1C274.015 231.516 273.703 230.172 273.079 229.068C272.455 227.964 271.639 227.148 270.631 226.62C269.623 226.068 268.531 225.792 267.355 225.792C266.155 225.792 265.051 226.068 264.043 226.62C263.059 227.148 262.267 227.964 261.667 229.068C261.067 230.172 260.767 231.516 260.767 233.1C260.767 234.708 261.055 236.064 261.631 237.168C262.231 238.272 263.023 239.1 264.007 239.652C264.991 240.18 266.071 240.444 267.247 240.444ZM288.654 243.324C287.142 243.324 285.786 243.072 284.586 242.568C283.386 242.04 282.438 241.32 281.742 240.408C281.046 239.472 280.662 238.404 280.59 237.204H283.974C284.07 238.188 284.526 238.992 285.342 239.616C286.182 240.24 287.274 240.552 288.618 240.552C289.866 240.552 290.85 240.276 291.57 239.724C292.29 239.172 292.65 238.476 292.65 237.636C292.65 236.772 292.266 236.136 291.498 235.728C290.73 235.296 289.542 234.876 287.934 234.468C286.47 234.084 285.27 233.7 284.334 233.316C283.422 232.908 282.63 232.32 281.958 231.552C281.31 230.76 280.986 229.728 280.986 228.456C280.986 227.448 281.286 226.524 281.886 225.684C282.486 224.844 283.338 224.184 284.442 223.704C285.546 223.2 286.806 222.948 288.222 222.948C290.406 222.948 292.17 223.5 293.514 224.604C294.858 225.708 295.578 227.22 295.674 229.14H292.398C292.326 228.108 291.906 227.28 291.138 226.656C290.394 226.032 289.386 225.72 288.114 225.72C286.938 225.72 286.002 225.972 285.306 226.476C284.61 226.98 284.262 227.64 284.262 228.456C284.262 229.104 284.466 229.644 284.874 230.076C285.306 230.484 285.834 230.82 286.458 231.084C287.106 231.324 287.994 231.6 289.122 231.912C290.538 232.296 291.69 232.68 292.578 233.064C293.466 233.424 294.222 233.976 294.846 234.72C295.494 235.464 295.83 236.436 295.854 237.636C295.854 238.716 295.554 239.688 294.954 240.552C294.354 241.416 293.502 242.1 292.398 242.604C291.318 243.084 290.07 243.324 288.654 243.324Z" fill="#401604"/>
<g clip-path="url(#clip0_65_272)">
<path d="M330.795 15.286C334.677 15.2625 338.564 15.9418 342.184 17.2786C339.031 17.6233 336.128 19.0291 333.344 20.4769C329.519 22.4662 325.723 24.6169 322.637 27.5461C323.669 26.2093 324.721 24.8371 325.2 23.243C325.707 21.5581 325.534 19.7606 325.273 18.0252C325.158 17.2668 324.774 16.2781 324.867 15.518C324.967 14.6924 325.27 14.8202 326.002 14.9951C327.578 15.3684 329.187 15.2961 330.795 15.286Z" fill="#CEAF8E"/>
<path d="M317.381 112.486C330.799 124.499 337.396 142.237 344.647 158.814C345.576 160.94 346.741 163.265 348.911 164.025C351.939 165.086 354.91 162.574 357.905 161.422C362.876 159.51 368.587 161.4 373.699 159.919C375.396 159.428 377.138 158.385 377.608 156.663C378.165 154.625 376.749 152.624 375.414 150.997C364.634 137.854 353.473 125.03 341.951 112.55C338.973 109.325 334.621 105.842 330.734 107.843C327.187 109.669 326.973 114.625 327.251 118.642C327.28 119.071 327.405 119.611 327.824 119.678C328.243 119.745 328.161 118.814 327.846 119.099L317.381 112.486Z" fill="#BA7D60"/>
<path d="M311.264 132.863C311.227 133.055 311.184 133.256 311.051 133.359C310.943 133.441 310.79 133.445 310.645 133.443C305.462 133.399 299.812 131.992 295.328 133.915C294.393 134.317 293.435 135.338 294.049 136.574C295.217 135.499 296.842 135.151 298.456 134.94C306.63 133.867 315.731 135.787 324.321 140.398C324.003 139.502 323.114 138.985 322.343 138.605C319.307 137.105 316.272 135.605 313.236 134.105C313.083 134.03 312.922 133.947 312.807 133.794C312.625 133.551 312.636 133.231 312.666 132.964C313.54 125.094 319.83 109.449 321.836 102.432C317.874 101.985 315.81 115.22 314.778 118.65C313.389 123.258 312.201 127.988 311.264 132.863Z" fill="#7C5946"/>
<path d="M300.741 130.685C298.241 130.325 295.72 130.103 293.469 130.695C293.216 130.763 292.925 130.917 292.987 131.245C293.033 131.496 293.281 131.701 293.497 131.745C293.713 131.788 293.906 131.716 294.097 131.657C295.213 131.313 296.859 131.232 298.12 131.415C299.963 131.682 303.912 132.311 305.766 132.698C308.902 133.314 309.846 134.425 312.914 134.64C312.65 133.214 308.306 132.323 307.31 132.041C305.11 131.417 302.916 130.998 300.741 130.685Z" fill="#7C5946"/>
<path d="M305.939 137.151C304.094 138.314 302.511 139.965 301.615 142.188C301.929 142.597 302.381 142.288 302.614 141.965C304.96 138.709 308.395 136.604 312.334 136.009C312.997 135.908 313.682 135.847 314.258 135.55C314.095 135.634 312.586 134.509 312.128 134.559C311.503 134.63 310.833 135.042 310.238 135.232C308.729 135.714 307.265 136.313 305.939 137.151Z" fill="#7C5946"/>
<path d="M345.268 77.0504C343.734 66.2078 339.984 55.5148 333.256 46.9356C331.241 44.3662 328.954 41.9835 326.267 40.1455C320.043 35.8879 312.183 34.8773 304.671 35.0421C302.231 35.0959 299.782 35.2623 297.407 35.824C294.014 36.6244 290.81 38.2353 288.127 40.4886L288.451 40.4247C287.107 41.1343 285.881 42.1062 284.865 43.2413C282.465 45.925 281.109 49.4058 280.247 52.9185C276.842 66.7879 280.574 81.6107 287.165 94.2509C292.706 104.877 300.315 114.476 309.804 121.697C316.696 126.942 325.354 131.018 333.763 129.086C335.578 128.669 337.358 127.962 338.815 126.79C340.833 125.169 342.102 122.768 342.953 120.308C344.118 116.937 344.594 113.365 344.994 109.817C346.222 98.934 346.802 87.893 345.268 77.0504Z" fill="#CEAF8E"/>
<path d="M283.797 27.6652C285.259 20.5018 289.894 13.9589 296.37 10.7085C302.06 7.85323 308.703 7.62118 315.013 8.34761C318.817 8.78481 322.72 9.60708 325.81 11.8923C328.901 14.1775 330.968 18.2536 329.926 21.9799C328.858 25.8003 325.054 28.1057 322.981 31.4789C321.482 33.9188 320.944 36.9439 321.504 39.7588C321.933 41.9078 322.976 44.0014 322.714 46.179C322.346 49.2293 319.556 51.3598 316.809 52.6697C313.951 54.0334 310.792 54.9297 307.647 54.6237C304.54 54.321 301.671 52.8799 298.813 51.607C295.155 49.9776 284.32 65.0913 281.932 61.6508C278.678 56.9661 282.701 33.0259 283.797 27.6652Z" fill="#CEAF8E"/>
<path d="M297.705 8.52607C294.205 8.33101 290.653 8.12755 287.341 6.96896C284.029 5.81206 280.928 3.55375 279.549 0.294922C279.404 3.63278 281.641 6.93533 284.77 8.00311C283.207 8.10401 281.621 7.82487 280.182 7.19765C282.005 8.50589 283.797 9.85954 285.55 11.2619C283.881 12.1363 281.736 11.98 280.207 10.8752C285.186 16.4697 293.159 18.5262 300.583 17.9999C307.687 17.4971 315.485 15.1564 321.845 11.9547C315.199 7.64494 305.219 8.9431 297.705 8.52607Z" fill="#CEAF8E"/>
<path d="M283.205 52.6432C280.922 54.8897 279.969 58.2679 280.104 61.4881C280.238 64.7082 281.352 67.8073 282.701 70.7282C286.342 78.6079 291.724 85.5173 297.198 92.2233C303.973 100.525 311.001 108.679 319.079 115.688C327.157 122.696 336.359 128.56 346.526 131.738C337.79 121.933 328.969 112.008 322.744 100.406C325.733 98.8133 327.059 95.0382 326.78 91.6314C326.479 87.9522 324.673 84.5908 322.792 81.4278C317.648 72.7712 311.647 64.6376 304.914 57.18C302.072 54.0338 299.712 50.252 295.36 49.7711C291.187 49.3087 286.399 49.502 283.205 52.6432Z" fill="#BA7D60"/>
<path d="M337.064 63.5916C338.018 70.7601 338.372 80.0523 338.127 87.2795C339.249 87.0761 339.781 85.7678 340.414 86.728C341.045 87.6882 341.28 88.8535 341.483 89.9885C344.148 104.929 343.646 117.926 343.046 133.095C345.488 119.799 348.216 108.808 348.943 95.3055C349.926 77.0289 341.163 51.4761 337.571 47.4303C335.425 45.014 331.769 40.4788 328.189 40.4217C325.798 40.383 326.694 41.2355 327.912 42.9019C329.72 45.3772 331.977 47.4858 333.421 50.2352C335.528 54.254 336.469 59.1204 337.064 63.5916Z" fill="#BA7D60"/>
<path d="M301.312 101.201C306.659 109.288 312.203 117.495 319.89 123.34C321.163 124.309 322.906 125.225 324.251 124.363C327.312 127.204 330.446 130.097 334.25 131.788C335.92 132.532 337.685 133.026 339.442 133.519C341.758 134.168 344.077 134.817 346.393 135.466C348.417 136.033 350.496 136.604 352.587 136.406C354.678 136.207 356.815 135.067 357.607 133.098C346.001 126.759 334.92 119.437 324.517 111.233C319.098 106.96 315.3 105.164 311.514 99.3631C313.849 101.25 316.269 101.825 320.681 102.277C323.693 102.585 326.863 97.0426 327.887 94.1302C320.608 94.0175 311.797 91.3001 305.61 87.4174C299.423 83.5348 294.017 78.5187 288.769 73.4135C285.394 70.1312 282.151 66.7244 280.338 62.2817C281.133 68.717 283.537 73.8373 286.994 79.2569C291.692 86.6221 296.496 93.9183 301.312 101.201Z" fill="#303033"/>
<path d="M347.144 128.701C348.361 129.435 349.67 127.858 350.113 126.496C351.188 123.185 351.334 119.651 351.472 116.168C352.02 102.263 352.464 87.7836 346.852 75.0796C347.415 81.0306 347.503 87.0051 346.917 92.9544C344.13 121.201 340.632 124.889 337.92 131.093C336.959 133.291 336.161 135.729 336.615 138.089C337.443 142.385 341.881 142.573 344.211 139.73C345.275 138.437 349.529 130.142 347.144 128.701Z" fill="#303033"/>
<path d="M305.705 102.166C306.132 101.868 306.396 101.347 306.386 100.823C307.307 104.582 309.01 108.146 311.353 111.209C311.621 111.561 311.945 111.931 312.38 111.98C312.816 112.028 313.279 111.51 313.022 111.151C314.055 114.413 316.435 117.214 319.47 118.736C319.599 118.223 319.729 117.712 319.859 117.199C323.593 122.713 330.046 125.534 336.155 128.079C329.615 124.732 324.361 118.891 321.683 111.988C321.934 113.429 319.962 114.423 318.649 113.809C317.336 113.195 316.681 111.704 316.267 110.301C315.854 108.899 315.526 107.384 314.516 106.336C314.906 107.28 313.505 108.141 312.596 107.69C311.689 107.241 311.305 106.158 311.026 105.176C310.403 102.98 309.879 100.754 309.462 98.5071C309.246 98.9342 309.03 99.3613 308.814 99.7884C308.272 100.236 307.652 99.3159 307.553 98.6147C307.134 95.6669 307.026 92.6284 307.373 89.6672C304.967 88.8601 302.414 90.4373 302.098 93.0252C301.967 94.0863 304.877 102.743 305.705 102.166Z" fill="#FFD91F"/>
<path d="M292.355 76.8574C293.485 78.9644 297.826 88.9057 302 91.6668C303.232 92.4806 304.87 93.1247 306.12 92.3377C307.34 93.8696 308.992 95.045 310.83 95.6873C312.046 96.1128 313.678 96.1615 314.325 95.0349C315.747 96.3784 317.894 96.6811 319.802 96.2977C321.71 95.9143 323.443 94.9374 325.138 93.9738C319.247 93.7435 294.645 79.1309 292.355 76.8574Z" fill="#E2E2E2"/>
<path d="M288.264 75.5813C289.289 79.8692 291.11 84.0042 293.902 87.3925C294.397 87.9945 294.936 88.5813 295.611 88.9647C293.01 85.568 291.499 81.3271 291.361 77.0308C291.301 75.1811 291.508 73.2658 292.393 71.6465C290.517 70.7889 289.198 68.8064 289.118 66.7246C287.544 69.5849 287.514 72.4419 288.264 75.5813Z" fill="#E2E2E2"/>
<path d="M303.313 94.1638C303.724 94.5556 304.192 94.9558 304.756 94.9911C305.319 95.0264 305.931 94.4816 305.743 93.9418C307.129 95.509 308.895 96.7298 310.843 97.4663C311.523 97.7236 312.249 97.9237 312.969 97.8212C313.687 97.7186 314.394 97.2461 314.589 96.5398C316.183 97.9422 318.353 98.6518 320.457 98.4551C322.838 98.2331 325.344 96.3347 325.087 93.9284C321.369 96.3212 315.995 95.5965 313.025 92.304C313.494 93.2944 312.427 94.4631 311.342 94.49C310.258 94.5169 309.301 93.8107 308.482 93.091C307.234 91.9963 306.077 90.7923 305.032 89.4975C305.173 90.3164 305.221 91.3539 304.508 91.7693C303.888 92.1291 303.116 91.7508 302.526 91.3422C299.955 89.5665 297.686 87.0475 296.201 84.3032C296.83 87.8109 300.854 91.818 303.313 94.1638Z" fill="#ED473A"/>
<path d="M343.773 79.4064C342.229 82.2936 340.288 84.9639 338.024 87.3163C340.427 87.2726 342.812 86.526 344.82 85.1892C345.883 84.4812 346.855 83.59 347.472 82.4634C348.695 80.2269 348.331 77.4457 347.563 75.0108C346.786 72.544 346.528 70.3042 345.375 67.5347C346.182 71.905 345.911 75.4076 343.773 79.4064Z" fill="#E2E2E2"/>
<path d="M343.972 86.8254C345.484 86.3714 347.078 85.8467 348.095 84.6293C349.071 83.4606 349.343 81.8178 349.16 80.2976C348.978 78.7775 348.388 77.3432 347.804 75.9307C347.673 78.4631 346.417 80.8458 344.68 82.677C343.716 83.6944 342.606 84.5553 341.433 85.3087C340.451 85.9392 338.847 86.4117 338.126 87.2777C339.593 88.3035 342.442 87.2862 343.972 86.8254Z" fill="#ED473A"/>
<path d="M347.719 112.156C347.906 112.56 348.23 112.851 348.582 112.932C348.991 110.487 349.006 107.927 348.627 105.474C348.702 105.913 348.928 106.303 349.228 106.515C349.73 103.999 349.724 101.312 349.212 98.7999C349.33 99.1059 349.446 99.4103 349.564 99.7163C349.674 97.3722 349.506 95.0063 349.069 92.7295C350.005 95.61 350.581 98.6939 350.771 101.818C350.513 101.621 350.327 101.268 350.277 100.882C350.614 102.654 350.771 104.485 350.741 106.311C350.732 106.754 350.699 107.243 350.457 107.549C350.214 107.855 349.702 107.757 349.665 107.317C350.061 108.802 350.171 110.418 349.981 111.971C349.632 111.886 349.255 112.047 349.009 112.385C349.341 113.579 349.328 114.934 348.971 116.116C348.71 115.746 348.501 115.314 348.353 114.849C348.869 117.149 348.587 120.186 347.336 122.012C347.154 120.598 347.346 119.098 347.527 117.7C347.691 116.439 348.256 113.317 347.719 112.156Z" fill="#FFD91F"/>
<path d="M305.816 12.9368C307.918 12.7535 310.04 12.9939 312.141 12.8056C314.243 12.6156 316.432 11.9077 317.753 10.2446C318.049 9.87299 318.306 9.44924 318.71 9.20542C319.139 8.94478 319.667 8.92797 320.166 8.95151C324.635 9.16843 328.801 12.4424 330.115 16.7673C330.376 17.6266 330.531 18.5683 330.23 19.4141C329.929 20.2599 329.045 20.946 328.179 20.7475C327.902 20.6836 327.649 20.5407 327.39 20.423C326.061 19.8277 324.54 19.9505 323.089 20.0631C318.265 20.4398 313.216 20.5458 308.816 18.5094C307.328 17.8217 305.956 16.9052 304.48 16.1939C303.68 15.8088 302.863 15.5263 302.005 15.3111C301.266 15.1245 300.774 15.1715 301.326 14.4014C302.098 13.3302 304.638 13.0393 305.816 12.9368Z" fill="#ED473A"/>
<path d="M305.816 12.9368C309.909 12.6559 314.21 12.8914 317.585 14.8638C319.408 15.9282 321.027 17.7527 323.131 17.6703C325.235 17.5879 327.766 15.7281 328.67 13.8044C329.735 15.1682 330.699 17.0666 330.799 19.1719C330.868 20.6248 330.677 22.0743 330.172 23.4346C329.222 25.999 327.744 28.3616 325.865 30.3306C324.751 31.4959 323.481 32.5486 322.675 33.9493C321.869 35.35 322.268 37.1392 323.274 38.4004C321.223 38.3802 318.8 36.8063 318.223 34.8136C317.647 32.8227 318.119 30.64 319.068 28.8004C320.017 26.9608 321.409 25.402 322.787 23.8634C323.915 22.604 325.045 21.3428 326.174 20.0833C323.523 22.5031 319.998 24.4032 316.493 23.7188C313.908 23.2144 311.794 21.4067 309.474 20.1455C303.631 16.9691 296.021 17.4635 290.628 21.3714C291.68 20.6096 292.438 19.103 293.527 18.2404C294.554 17.4265 295.685 16.5891 296.834 15.9635C299.612 14.4518 302.708 13.1503 305.816 12.9368Z" fill="#303033"/>
<path d="M374.645 151.027C374.517 150.277 374.11 149.609 373.694 148.977C371.948 146.315 369.882 143.867 367.559 141.704C368.539 143.204 369.481 144.729 370.387 146.276C370.846 147.061 371.308 147.896 371.326 148.809C371.349 150.065 370.399 151.267 369.182 151.521C368.38 151.689 367.524 151.428 366.899 150.9C366.922 151.151 366.879 151.408 366.758 151.625C366.414 152.242 365.649 152.52 364.951 152.459C364.255 152.399 363.612 152.062 363.013 151.696C361.362 150.685 359.861 149.375 358.759 147.78C359.766 149.565 360.356 151.592 360.454 153.646C360.487 154.358 360.443 155.131 359.994 155.678C359.386 156.419 358.271 156.468 357.345 156.241C355.876 155.881 354.545 154.973 353.666 153.73C354.076 154.736 354.314 156.216 353.318 156.631C353.046 156.746 352.738 156.734 352.446 156.702C350.88 156.525 349.393 155.728 348.368 154.519C348.617 155.099 348.873 155.708 348.825 156.337C348.778 156.967 348.321 157.615 347.696 157.638C347.336 157.652 347 157.464 346.694 157.268C344.449 155.844 341.163 149.804 339.846 147.707C341.074 151.127 341.632 154.477 343.304 157.699C344.421 159.85 346.003 162.091 348.369 162.503C350.579 162.887 352.941 161.242 353.376 159.016C353.808 159.813 354.799 160.252 355.67 160.035C356.542 159.818 357.217 158.963 357.234 158.055C358.37 158.858 359.936 158.99 361.187 158.39C362.438 157.79 363.329 156.48 363.436 155.082C364.365 156.261 365.632 157.467 367.112 157.28C367.999 157.168 368.797 156.502 369.071 155.639C369.345 154.776 369.084 153.764 368.428 153.149C369.844 153.583 371.354 153.69 372.815 153.461C373.214 153.399 373.619 153.307 373.95 153.073C374.563 152.632 374.774 151.777 374.645 151.027Z" fill="#303033"/>
<path d="M341.076 144.275C342.184 146.833 343.482 149.311 344.675 151.832C345.868 154.353 347.037 156.887 348.187 159.427C348.354 159.797 348.909 159.476 348.732 159.105C347.522 156.599 346.284 154.107 345.021 151.627C343.759 149.153 342.54 146.634 341.104 144.258C341.092 144.241 341.067 144.257 341.076 144.275Z" fill="#303033"/>
<path d="M346.589 147.533C347.445 149.467 348.381 151.353 349.435 153.186C349.931 154.052 350.432 154.918 350.975 155.755C351.49 156.547 351.966 157.582 352.747 158.126C353.147 158.406 353.644 157.945 353.534 157.514C353.302 156.601 352.487 155.762 351.959 154.99C351.394 154.163 350.807 153.351 350.234 152.53C349.054 150.84 347.854 149.169 346.644 147.501C346.621 147.467 346.573 147.496 346.589 147.533Z" fill="#303033"/>
<path d="M348.998 142.772C350.61 145.299 352.25 147.818 353.697 150.447C355.138 153.061 356.341 155.799 357.682 158.466C357.94 158.975 358.721 158.521 358.445 158.015C355.572 152.747 352.561 147.608 349.106 142.708C349.061 142.643 348.953 142.701 348.998 142.772Z" fill="#303033"/>
<path d="M352.951 140.019C354.231 142.836 355.871 145.462 357.496 148.086C358.28 149.35 359.062 150.618 359.891 151.854C360.306 152.473 360.723 153.088 361.144 153.704C361.538 154.28 361.898 155.066 362.556 155.355C362.847 155.483 363.286 155.343 363.256 154.948C363.198 154.19 362.663 153.658 362.237 153.058C361.805 152.451 361.377 151.841 360.951 151.228C360.067 149.961 359.158 148.711 358.272 147.443C356.527 144.948 354.879 142.38 352.991 139.991C352.969 139.967 352.939 139.996 352.951 140.019Z" fill="#303033"/>
<path d="M358.292 139.03C359.901 141.454 361.633 143.776 363.371 146.103C364.223 147.245 365.053 148.402 365.884 149.56C366.698 150.695 367.451 151.95 368.391 152.981C368.777 153.403 369.498 152.851 369.184 152.362C368.458 151.23 367.484 150.221 366.633 149.184C365.694 148.04 364.755 146.9 363.838 145.738C362.036 143.456 360.242 141.186 358.317 139.01C358.306 138.999 358.282 139.015 358.292 139.03Z" fill="#303033"/>
<path d="M364.291 142.02C365.347 143.892 366.424 145.673 367.736 147.378C369.083 149.125 370.48 150.793 372.007 152.382C372.84 153.25 374.198 151.857 373.312 151.062C370.159 148.232 367.137 145.173 364.341 141.982C364.316 141.955 364.273 141.99 364.291 142.02Z" fill="#303033"/>
<path d="M348.093 166.485C349.637 167.666 352.067 167.906 353.386 166.475C353.885 165.935 354.307 165.143 355.037 165.135C355.352 165.132 355.643 165.286 355.926 165.429C356.489 165.715 357.109 165.971 357.732 165.878C358.355 165.786 358.949 165.216 358.852 164.585C360.459 166.046 363.361 165.582 364.443 163.692C365.636 164.215 366.93 164.624 368.222 164.469C369.513 164.314 370.796 163.474 371.14 162.204C372.227 162.961 373.716 163.083 374.911 162.513C376.104 161.943 376.958 160.702 377.071 159.372C377.782 159.986 378.974 159.725 379.547 158.98C380.122 158.236 380.154 157.173 379.851 156.278C379.549 155.384 378.956 154.625 378.352 153.904C376.498 151.688 374.651 149.256 372.531 147.299C373.164 148.605 373.51 150.775 372.434 151.741C372.047 152.09 371.525 152.234 371.019 152.338C369.741 152.602 368.426 152.68 367.126 152.565C367.412 153.07 367.705 153.591 367.771 154.168C367.836 154.745 367.615 155.397 367.102 155.656C366.784 155.816 366.409 155.806 366.058 155.754C364.921 155.584 363.849 155.009 363.072 154.154C363.289 155.493 362.264 156.789 361.018 157.289C359.771 157.788 358.374 157.664 357.051 157.444C357.268 157.891 357.144 158.483 356.763 158.802C356.383 159.122 355.786 159.135 355.39 158.836C354.887 158.452 354.594 157.607 353.971 157.703C353.546 157.768 353.346 158.254 353.147 158.641C352.019 160.825 348.834 161.109 346.729 159.87C344.213 158.387 343.033 156.167 341.592 153.384C342.224 155.775 342.92 157.282 343.573 158.824C344.677 161.419 345.787 164.721 348.093 166.485Z" fill="#FFD91F"/>
<path d="M313.21 17.5596C312.9 18.2541 312.779 19.0646 313.038 19.7792C313.339 20.6049 314.15 21.2018 315.018 21.2842C315.883 21.3666 316.769 20.9529 317.311 20.2635C317.853 19.5741 318.051 18.6341 317.886 17.7698C317.78 17.2149 317.522 16.6768 317.1 16.3052C315.674 15.0524 313.889 16.0311 313.21 17.5596Z" fill="#ED473A"/>
<path d="M313.567 18.2393C313.426 18.922 313.625 19.6669 314.082 20.1899C314.261 20.395 314.479 20.5682 314.727 20.6758C315.4 20.9718 316.229 20.7414 316.749 20.2184C317.269 19.6955 317.504 18.9287 317.495 18.1855C317.492 17.8609 317.446 17.5313 317.298 17.2421C317.083 16.8234 316.664 16.5308 316.209 16.4282C315.054 16.1727 313.804 17.0925 313.567 18.2393Z" fill="#1D1D1E"/>
<path d="M314.114 18.0589C314.004 18.3364 313.962 18.666 314.114 18.9232C314.265 19.1788 314.664 19.2848 314.863 19.0645C315.058 18.8509 314.963 18.5029 315.079 18.2372C315.174 18.0219 315.39 17.8941 315.548 17.7226C315.706 17.5511 315.797 17.2518 315.623 17.0971C315.067 16.601 314.281 17.6352 314.114 18.0589Z" fill="white"/>
<path d="M285.698 44.3042C285.999 43.2045 286.087 42.0493 286.271 40.926C286.446 39.87 286.78 38.8056 286.866 37.7411C286.889 37.4469 286.432 37.3207 286.308 37.5881C285.849 38.5701 285.698 39.759 285.556 40.8285C285.407 41.9702 285.314 43.1725 285.56 44.3059C285.576 44.3748 285.679 44.3698 285.698 44.3042Z" fill="#F4D1A6"/>
<path d="M283.748 41.0237C284.126 38.7065 284.785 36.4448 285.294 34.1562C285.339 33.9511 285.056 33.8115 284.948 34.0083C283.77 36.169 283.461 38.5703 283.609 41.0035C283.614 41.0791 283.735 41.1077 283.748 41.0237Z" fill="#F4D1A6"/>
<path d="M287.584 34.1241C287.89 33.3741 288.227 32.646 288.604 31.9297C288.947 31.2806 289.455 30.7156 289.768 30.0581C289.92 29.7353 289.563 29.4814 289.297 29.6916C288.086 30.645 287.463 32.604 287.336 34.0905C287.323 34.2452 287.534 34.2435 287.584 34.1241Z" fill="#F4D1A6"/>
<path d="M286.964 29.0861C287.285 28.3715 287.592 27.6534 287.956 26.959C288.325 26.2561 288.8 25.6104 289.161 24.9075C289.316 24.6065 288.962 24.3576 288.716 24.5594C287.468 25.5801 286.771 27.4382 286.745 29.0256C286.741 29.1382 286.914 29.1971 286.964 29.0861Z" fill="#F4D1A6"/>
<path d="M315.392 63.2958C314.742 61.2426 313.687 59.208 312.178 57.661C312.04 57.5197 311.805 57.7013 311.905 57.8728C312.979 59.7225 314.16 61.5066 315.219 63.3698C315.272 63.4623 315.425 63.4017 315.392 63.2958Z" fill="#F4D1A6"/>
<path d="M310.409 59.2598C309.686 57.3715 308.643 55.6832 307.096 54.3598C306.908 54.2001 306.674 54.4405 306.828 54.6305C308.048 56.1288 309.259 57.6624 310.265 59.3204C310.311 59.3944 310.444 59.3473 310.409 59.2598Z" fill="#F4D1A6"/>
<path d="M309.693 53.5479C308.782 51.9605 307.767 50.4909 306.469 49.1994C306.339 49.0716 306.092 49.2465 306.21 49.4029C307.278 50.8356 308.389 52.2447 309.394 53.7261C309.519 53.9077 309.806 53.7446 309.693 53.5479Z" fill="#F4D1A6"/>
<path d="M303.74 51.3313C302.66 49.9356 301.199 48.3062 299.546 47.6067C299.346 47.5226 299.19 47.8286 299.338 47.9665C300.008 48.587 300.824 49.0461 301.513 49.6531C302.205 50.2601 302.871 50.8991 303.493 51.5801C303.651 51.7483 303.875 51.5028 303.74 51.3313Z" fill="#F4D1A6"/>
<path d="M322.087 70.8489C321.489 69.5323 320.897 68.2157 320.251 66.9226C320.186 66.7931 320.001 66.9057 320.06 67.0352C320.656 68.3502 321.306 69.6366 321.949 70.9297C321.997 71.0205 322.129 70.9397 322.087 70.8489Z" fill="#F4D1A6"/>
<path d="M325.323 75.0277C324.806 73.0838 324.351 71.0979 323.684 69.1995C323.619 69.0145 323.363 69.0885 323.395 69.2802C323.726 71.2695 324.43 73.2066 325.185 75.0664C325.22 75.1488 325.348 75.1202 325.323 75.0277Z" fill="#F4D1A6"/>
<path d="M319.23 61.5402C318.589 59.5896 317.829 57.5163 316.726 55.7809C316.585 55.5589 316.289 55.7506 316.385 55.9827C317.186 57.8896 318.208 59.7258 319.071 61.6075C319.114 61.6966 319.262 61.6327 319.23 61.5402Z" fill="#F4D1A6"/>
<path d="M312.41 48.8982C312.129 48.5047 311.852 48.1079 311.566 47.7161C311.307 47.3612 311.038 46.9577 310.698 46.6802C310.542 46.5524 310.315 46.7088 310.414 46.9022C310.614 47.2923 310.954 47.6421 311.244 47.9683C311.566 48.3315 311.898 48.6846 312.226 49.0428C312.314 49.142 312.49 49.0109 312.41 48.8982Z" fill="#F4D1A6"/>
<path d="M325.537 56.8502C324.987 55.1013 324.379 53.1356 323.322 51.6239C323.194 51.4406 322.837 51.5466 322.933 51.7904C323.624 53.5358 324.605 55.1619 325.295 56.9174C325.351 57.0671 325.587 57.0099 325.537 56.8502Z" fill="#F4D1A6"/>
<path d="M325.308 48.8966C324.809 47.3899 324.063 45.6664 322.832 44.612C322.602 44.4153 322.267 44.6574 322.411 44.9399C322.772 45.6479 323.325 46.2852 323.749 46.9612C324.179 47.6489 324.66 48.3047 325.092 48.9891C325.16 49.0984 325.353 49.0311 325.308 48.8966Z" fill="#F4D1A6"/>
<path d="M318.923 48.4244C318.399 47.1783 317.76 46.1156 316.842 45.1302C316.666 44.9402 316.344 45.1874 316.483 45.411C317.155 46.494 317.833 47.5886 318.433 48.7153C318.611 49.0482 319.061 48.7539 318.923 48.4244Z" fill="#F4D1A6"/>
<path d="M314.152 35.3064C311.4 35.5065 308.728 36.3137 306.117 37.2183C303.076 38.271 300.053 39.475 297.387 41.291C301.503 39.1908 305.926 37.6236 310.509 37.1174C315.177 36.5995 320.419 37.3243 324.721 39.1723C323.279 38.4005 322.027 36.8501 320.685 36.2515C318.675 35.3535 316.317 35.1484 314.152 35.3064Z" fill="#303033"/>
</g>
<g clip-path="url(#clip1_65_272)">
<path d="M128.134 129.466C128.445 130.386 128.588 131.396 128.432 132.342V132.368C128.38 132.589 128.329 132.809 128.251 133.016C128.238 133.094 128.199 133.172 128.16 133.249C127.162 135.543 124.285 136.217 122.238 137.655C119.582 139.534 117.715 143.124 114.476 143.111C112.325 143.098 110.459 141.245 110.07 139.146C109.863 138.044 110.005 136.943 110.381 135.893C110.627 135.206 110.977 134.532 111.405 133.936C111.625 133.586 111.871 133.249 112.117 132.925C112.61 132.278 113.154 131.694 113.724 131.163C113.906 130.995 114.087 130.826 114.256 130.684C117.832 127.638 122.057 126.822 122.07 126.822C122.782 126.602 123.521 126.446 124.234 126.42C124.687 126.394 125.141 126.433 125.555 126.55C125.918 126.654 126.268 126.809 126.579 127.029C126.877 127.237 127.136 127.496 127.344 127.794C127.681 128.286 127.94 128.869 128.134 129.466Z" fill="#CCA66A"/>
<path d="M181.368 128.727C182.534 127.664 184.219 127.69 185.826 127.949C185.826 127.949 192.979 128.429 197.268 133.703C197.761 134.247 198.188 134.856 198.525 135.504C199.018 136.489 199.303 137.577 199.225 138.692C199.095 140.83 197.476 142.903 195.35 143.175C192.137 143.59 189.83 140.247 186.979 138.718C184.763 137.538 181.835 137.24 180.552 135.076C179.891 133.975 179.852 132.588 180.098 131.331C180.28 130.359 180.642 129.388 181.368 128.727Z" fill="#CCA66A"/>
<path d="M200.573 110.391C201.817 117.427 201.622 125.475 196.75 130.723C191.346 136.554 182.379 136.8 174.422 136.645C162.267 136.399 150.086 136.165 137.931 135.906C135.339 135.854 132.722 135.815 130.143 135.556C128.912 135.44 127.694 135.297 126.488 135.077C126.411 135.064 126.32 135.051 126.242 135.025C125.154 134.831 124.065 134.571 123.003 134.247C119.413 133.172 116.07 131.306 113.206 128.883C110.575 126.654 108.359 123.945 106.727 120.887C103.332 114.55 102.567 106.827 104.666 99.9461C105.042 98.7539 105.483 97.5747 105.897 96.3825C106.325 95.1126 106.727 93.8297 106.921 92.5079C107.284 90.1495 107.012 87.778 106.947 85.3937C106.701 77.3205 109.254 68.5994 114.839 63.1049C115.681 62.2626 116.601 61.4981 117.586 60.8372C118.545 60.1893 119.556 59.6191 120.631 59.1526C122.536 58.0252 124.454 57.0014 126.372 56.0684C139.849 49.4725 153.689 47.2436 168.98 49.9261C177.649 51.4293 186.538 54.8114 191.852 61.835C193.432 63.9213 194.638 66.2539 195.687 68.6642C196.231 69.8823 196.724 71.1263 197.216 72.3573C197.398 72.8239 197.579 73.3033 197.774 73.7698C200.741 81.5191 203.229 89.8644 201.169 97.8339C201.169 97.8468 201.169 97.8468 201.156 97.8598C200.715 99.5574 200.067 101.242 199.86 102.991C199.562 105.454 200.145 107.929 200.573 110.391Z" fill="#E5BF7C"/>
<path d="M140.639 86.5858C140.652 93.6482 135.469 100.011 135.78 107.073C135.961 111.052 138.009 114.9 141.209 117.272C145.978 120.783 152.38 120.783 158.302 120.628C161.01 120.563 163.718 120.485 166.427 120.421C168.798 120.356 171.247 120.278 173.373 119.228C178.297 116.805 179.528 110.209 178.53 104.818C177.532 99.4277 174.954 94.348 174.604 88.8794C174.448 86.4173 174.111 83.1258 171.675 82.763C170.82 82.6334 169.977 82.9703 169.174 83.2425C165.999 84.331 162.565 84.642 159.261 84.1366C157.058 83.8126 154.907 83.1258 152.691 83.0351C149.658 82.9055 146.704 83.8645 143.827 84.8234C142.596 85.2381 141.313 85.6657 140.354 86.5339L140.639 86.5858Z" fill="white"/>
<path opacity="0.5" d="M164.923 84.7584C164.612 83.2164 164.042 81.3633 162.993 79.5491L162.306 78.4347C162.021 78.02 161.723 77.6183 161.373 77.2166C161.178 76.9833 160.945 76.8408 160.686 76.8148C160.569 76.7889 160.44 76.7889 160.31 76.8148C160.064 76.8408 159.844 76.9833 159.636 77.2166C159.39 77.5017 159.157 77.7997 158.937 78.0977L158.535 78.6809C157.161 80.7672 156.449 82.9702 156.086 84.7584C155.516 87.6353 156.617 90.6676 158.613 92.1967C158.729 92.2874 158.885 92.3651 159.066 92.4558C159.338 92.5854 159.662 92.702 160.051 92.7539C160.595 92.8316 161.243 92.7668 161.943 92.4299C162.047 92.391 162.124 92.3263 162.228 92.2744C162.319 92.2355 162.384 92.1707 162.474 92.1189C162.863 91.8209 163.213 91.4451 163.511 91.0304L163.939 90.3954L163.952 90.3825C164.923 88.8145 165.312 86.7541 164.923 84.7584Z" fill="#59301E"/>
<path d="M162.941 89.3569L162.928 89.3698L162.5 89.9918C162.202 90.4065 161.84 90.7823 161.464 91.0803C161.373 91.1322 161.308 91.197 161.217 91.2359C161.114 91.2877 161.036 91.3525 160.932 91.3914C160.233 91.7283 159.585 91.7931 159.04 91.7153C158.652 91.6635 158.328 91.5469 158.056 91.4173C157.874 91.3266 157.719 91.2488 157.602 91.1581C155.606 89.629 154.505 86.5837 155.075 83.7199C155.438 81.9316 156.151 79.7286 157.524 77.6423L157.926 77.0592C158.146 76.7611 158.38 76.4631 158.626 76.178C158.82 75.9447 159.053 75.8022 159.3 75.7763C159.429 75.7504 159.559 75.7504 159.675 75.7763C159.935 75.8022 160.155 75.9447 160.362 76.178C160.699 76.5797 161.01 76.9814 161.295 77.3961L161.982 78.5105C163.019 80.3247 163.602 82.1778 163.913 83.7199C164.263 85.7155 163.887 87.763 162.941 89.3569Z" fill="#8C4D2A"/>
<path d="M157.913 77.0737C157.809 78.0586 157.602 79.0175 157.874 80.0153C158.354 81.8425 156.734 83.255 157.343 85.2117C157.848 86.8056 156.941 88.0237 157.913 89.7731C158.289 90.434 158.652 91.082 159.04 91.7299C158.652 91.678 158.328 91.5614 158.056 91.4318C157.045 89.7991 156.306 88.0885 156.812 86.7927C157.421 85.1858 156.06 83.9288 156.993 82.4645C157.33 81.9202 157.498 79.5488 157.511 77.6698L157.913 77.0737Z" fill="#AA6543"/>
<path d="M161.205 91.2376C161.101 91.2894 161.023 91.3542 160.919 91.3931C160.829 91.0562 160.764 90.6804 160.673 90.2786C160.427 89.242 159.261 87.9979 159.326 86.9872C159.546 83.8771 160.246 78.8751 159.274 75.765C159.403 75.7391 159.533 75.7391 159.649 75.765C160.505 78.5123 160.051 81.5186 160.297 84.3566C160.427 85.7691 159.896 86.9872 160.479 88.4256C160.855 89.3586 160.984 90.3175 161.205 91.2376Z" fill="#AA6543"/>
<path d="M161.269 77.3979C161.256 77.4368 161.256 77.4887 161.269 77.5405C162.06 79.6009 161.529 81.2855 161.814 83.3071C161.982 84.5381 162.539 85.5359 162.643 86.8318C162.747 87.8685 162.604 88.944 162.5 89.9937L162.928 89.3587L162.941 89.3457C163.071 87.6611 163.084 86.0284 162.604 84.3567C162.034 82.4 162.371 80.4562 161.956 78.4994L161.269 77.3979Z" fill="#AA6543"/>
<path d="M187.912 24.4881C187.42 25.5248 186.707 26.4967 185.774 27.1835C185.631 27.3001 185.489 27.3908 185.333 27.4945C184.543 27.9869 183.636 28.272 182.716 28.4664C180.772 28.8681 178.725 28.894 176.833 28.3887C176.042 28.1684 175.278 27.8574 174.565 27.4427C172.582 26.2894 171.092 24.2419 170.755 22.026C170.677 21.5077 170.664 21.0023 170.716 20.471C171.947 19.6805 172.997 18.6568 173.93 17.5035C175.589 15.4171 176.846 12.9161 178.051 10.5706C178.543 9.58577 179.1 8.48429 180.137 8.16033C181.2 7.82341 182.314 8.47134 183.182 9.14518C185.463 10.9335 187.329 13.3049 188.262 16.0391C189.221 18.7734 189.169 21.8835 187.912 24.4881Z" fill="#E5BF7C"/>
<path d="M140.017 26.4711C137.866 28.2723 134.95 28.9591 132.151 28.8684C131.218 28.8296 130.272 28.7 129.404 28.3501C128.16 27.8577 127.136 26.9117 126.346 25.8361C124.674 23.4777 124.104 20.4195 124.558 17.5686C125.024 14.7177 126.45 12.0612 128.393 9.91005C128.704 9.57313 129.028 9.24917 129.404 8.97704C129.961 8.58828 130.57 8.32911 131.231 8.40686C132.307 8.56236 133.045 9.56017 133.693 10.4284C135.715 13.0979 137.879 16.0524 140.678 17.8925C141.287 18.3072 141.935 18.6571 142.622 18.9422C143.399 21.6505 142.168 24.6699 140.017 26.4711Z" fill="#E5BF7C"/>
<path d="M198.24 64.7244C197.553 66.1109 196.698 67.4198 195.7 68.6379C192.94 72.0719 189.13 74.6895 184.958 75.9206C183.234 76.4519 181.459 76.724 179.645 76.737C177.247 76.7629 174.863 76.3353 172.453 76.1927C169.822 76.0502 166.647 74.4044 164.016 74.6247C157.693 75.1819 151.706 77.2164 145.486 77.4756C144.345 77.5145 143.205 77.5015 142.039 77.4238C140.004 77.2683 137.957 77.0091 135.948 76.6074C132.514 75.9465 129.145 74.8709 126.061 73.3159C124.286 72.4347 122.601 71.3851 121.033 70.154C120.8 69.9726 120.579 69.7912 120.359 69.5968C120.242 69.5061 120.126 69.4024 120.009 69.3117C119.996 69.2987 119.97 69.2728 119.944 69.2599C119.672 69.0137 119.4 68.7674 119.128 68.5083C117.469 66.9014 116.018 65.0743 114.852 63.0916C113.31 60.474 112.286 57.5842 111.962 54.6167C111.806 53.269 111.793 51.9213 111.949 50.5607C112.714 43.6926 117.262 37.8224 122.432 33.248C123.962 31.8874 125.543 30.6304 127.162 29.3864C127.733 28.9587 128.303 28.5181 128.86 28.0905C132.164 25.5506 135.508 23.0755 138.475 20.1728C139.24 19.4342 139.952 18.6696 140.704 17.9051C141.987 16.5833 143.296 15.3004 144.786 14.2508C144.98 14.1212 145.175 13.9916 145.369 13.875C146.302 13.2918 147.313 12.8124 148.35 12.4884C149.296 12.0867 150.255 11.7498 151.252 11.5295C151.576 11.4517 151.771 11.3999 151.771 11.3999L151.784 11.4258C156.073 10.5576 160.699 11.1018 164.885 12.618C165.235 12.7476 165.559 12.8642 165.895 13.0067C168.746 14.173 171.403 15.741 173.93 17.4904C176.91 19.5638 179.722 21.9352 182.482 24.3066C183.571 25.2526 184.685 26.1856 185.774 27.1704C190.711 31.5375 195.376 36.2803 198.149 42.2153C201.454 49.2648 201.726 57.7915 198.24 64.7244Z" fill="#E5BF7C"/>
<path d="M178.219 54.565C177.221 52.699 175.692 51.1828 174.163 49.7185C173.982 49.5371 173.787 49.3686 173.606 49.1872C173.606 49.1742 173.593 49.1742 173.593 49.1613C161.943 30.0474 151.032 47.3471 151.032 47.3471L151.019 47.36C148.985 49.0576 147.002 50.807 145.434 52.9193C143.581 55.4203 142.324 58.5044 142.596 61.6015C142.946 65.5927 146.056 69.1823 149.956 70.1153C151.265 70.4263 152.626 70.4652 153.948 70.7503C157.278 71.4759 160.544 73.8085 163.796 72.7718C165.299 72.2923 166.505 71.152 167.969 70.5559C169.122 70.0894 170.379 69.9987 171.584 69.6877C174.655 68.8972 177.312 66.6424 178.582 63.7397C179.852 60.8499 179.709 57.3641 178.219 54.565Z" fill="white"/>
<path d="M162.591 56.5993C162.591 56.5993 157.952 54.8498 157.317 52.1545C157.317 52.1545 162.552 50.4051 167.774 52.1545C167.774 52.1674 166.88 54.7073 162.591 56.5993Z" fill="black"/>
<path d="M158.172 63.2862C156.837 63.2862 155.438 62.7419 154.025 61.6793C153.818 61.5238 153.779 61.2258 153.935 61.0185C154.09 60.8111 154.388 60.7722 154.596 60.9277C156.125 62.0811 157.576 62.5346 158.924 62.2754C160.686 61.9385 161.788 60.4612 162.06 60.0595V55.1093C162.06 54.8502 162.267 54.6299 162.539 54.6299C162.798 54.6299 163.019 54.8372 163.019 55.1093V60.3187L162.954 60.4353C162.902 60.526 161.58 62.716 159.131 63.1955C158.82 63.2473 158.496 63.2862 158.172 63.2862Z" fill="black"/>
<path d="M166.919 63.1436C166.595 63.1436 166.284 63.1177 165.96 63.0529C163.511 62.5735 162.189 60.3835 162.138 60.2927L162.073 60.1761V54.9668C162.073 54.7076 162.28 54.4873 162.552 54.4873C162.811 54.4873 163.032 54.6946 163.032 54.9668V59.904C163.304 60.3057 164.405 61.783 166.168 62.1199C167.515 62.3791 168.98 61.9255 170.509 60.7722C170.716 60.6167 171.014 60.6556 171.17 60.8629C171.325 61.0703 171.286 61.3683 171.079 61.5238C169.654 62.5994 168.254 63.1436 166.919 63.1436Z" fill="black"/>
<path d="M148.401 45.7534C147.805 47.5287 146.302 48.6172 145.058 48.2025C143.814 47.7749 143.296 45.9996 143.892 44.2242C144.488 42.4489 145.991 41.3604 147.235 41.7751C148.492 42.2027 149.011 43.978 148.401 45.7534Z" fill="black"/>
<path d="M173.101 45.4682C173.697 47.2435 175.2 48.332 176.444 47.9174C177.688 47.5027 178.206 45.7144 177.61 43.9391C177.014 42.1638 175.511 41.0752 174.267 41.4899C173.023 41.9176 172.504 43.6929 173.101 45.4682Z" fill="black"/>
<path opacity="0.3" d="M130.246 128.221C129.884 129.478 129.43 130.709 128.886 131.889C128.432 132.873 127.888 133.871 127.033 134.571C127.02 134.584 127.02 134.584 127.007 134.584L126.994 134.61C126.786 134.778 126.579 134.921 126.346 135.025C126.32 135.038 126.294 135.063 126.268 135.051C124.143 136.139 121.305 135.336 119.128 134.143C116.731 132.848 114.58 131.176 112.713 129.219C112.493 129.012 112.39 128.882 112.39 128.882C108.048 124.204 105.236 118.01 104.303 111.66C103.928 109.146 103.902 106.425 104.524 103.976L104.511 103.963C104.537 103.859 104.576 103.769 104.601 103.665C104.692 103.341 104.809 103.017 104.925 102.693C105.003 102.499 105.068 102.317 105.146 102.136C105.21 101.993 105.262 101.851 105.327 101.721C106.856 98.2223 108.943 96.7839 110.536 96.2007C111.91 95.6954 112.921 95.8379 112.921 95.8379L112.934 95.8509C113.854 95.6694 114.813 95.6176 115.733 95.7602C116.536 95.8768 117.314 96.11 118.078 96.421C120.113 97.2633 121.901 98.6758 123.456 100.257C130.48 107.475 133.045 118.593 130.246 128.221Z" fill="#AA8550"/>
<path d="M129.599 127.573C129.352 128.921 129.003 130.23 128.562 131.526C128.186 132.588 127.733 133.69 126.916 134.493C126.903 134.506 126.903 134.506 126.89 134.506L126.877 134.532C126.683 134.727 126.476 134.895 126.255 135.025C126.229 135.038 126.191 135.063 126.165 135.063C124.078 136.411 121.059 135.867 118.675 134.856C116.057 133.768 113.66 132.239 111.534 130.398C111.288 130.204 111.159 130.074 111.159 130.074C106.183 125.669 102.645 119.539 101.025 113.047C100.39 110.468 100.079 107.656 100.481 105.051L100.455 105.039C100.468 104.922 100.494 104.831 100.52 104.715C100.571 104.365 100.675 104.028 100.753 103.678C100.805 103.471 100.869 103.276 100.921 103.082C100.973 102.926 101.012 102.771 101.077 102.641C102.308 98.8573 104.316 97.1597 105.91 96.3951C107.284 95.7343 108.347 95.7731 108.347 95.7731L108.36 95.7861C109.306 95.514 110.29 95.3585 111.249 95.4103C112.092 95.4492 112.921 95.6176 113.737 95.8509C115.927 96.5118 117.936 97.8076 119.711 99.2849C127.733 106.036 131.529 117.31 129.599 127.573Z" fill="#E5BF7C"/>
<path opacity="0.3" d="M203.851 113.63C201.467 122.183 195.454 129.932 187.199 133.159C184.698 134.13 181.511 134.558 179.658 132.614C178.932 131.863 178.543 130.865 178.232 129.867C177.804 128.506 177.481 127.107 177.299 125.694C176.016 116.416 179.761 106.477 187.109 100.62C187.148 100.581 187.199 100.555 187.238 100.529C189.467 98.7665 192.098 97.354 194.936 97.2762C195.817 97.2503 196.724 97.4058 197.566 97.6909L197.579 97.678C197.722 97.678 202.167 97.7298 204.059 104.131C204.11 104.261 204.149 104.403 204.188 104.533C204.24 104.714 204.279 104.896 204.318 105.077C204.395 105.388 204.473 105.725 204.525 106.036C204.551 106.14 204.564 106.231 204.59 106.321L204.564 106.334C204.849 108.745 204.512 111.297 203.851 113.63Z" fill="#AA8550"/>
<path d="M207.272 114.835C204.668 124.178 198.098 132.653 189.065 136.191C186.331 137.253 182.845 137.72 180.824 135.595C180.033 134.778 179.606 133.69 179.256 132.588C178.789 131.111 178.439 129.569 178.232 128.027C176.833 117.893 180.915 107.021 188.949 100.607C188.988 100.568 189.04 100.542 189.091 100.516C191.528 98.5851 194.404 97.043 197.514 96.9523C198.486 96.9264 199.471 97.0949 200.391 97.4059L200.404 97.3929C200.56 97.3929 205.419 97.4447 207.493 104.442C207.544 104.585 207.583 104.727 207.635 104.883C207.687 105.077 207.726 105.285 207.778 105.479C207.855 105.829 207.946 106.179 207.998 106.529C208.024 106.645 208.037 106.736 208.063 106.853L208.037 106.866C208.374 109.483 207.998 112.282 207.272 114.835Z" fill="#E5BF7C"/>
<mask id="mask0_65_272" style="mask-type:alpha" maskUnits="userSpaceOnUse" x="100" y="54" width="30" height="83">
<path d="M128.458 131.785C128.756 130.93 129.339 128.986 129.404 126.926C129.391 126.874 129.378 126.822 129.352 126.77C128.899 127.937 128.16 128.999 127.214 129.828C127.085 129.945 126.968 130.036 126.838 130.139C126.514 129.466 126.203 128.779 125.879 128.105C125.659 127.638 125.439 127.172 125.219 126.705C125.063 127.016 124.869 127.302 124.661 127.574C123.106 129.569 120.268 130.463 117.729 130.075C116.342 129.854 115.059 129.323 113.867 128.597C112.571 127.807 111.379 126.757 110.355 125.617C105.781 120.524 104.122 111.959 108.826 106.995C110.912 109.134 114.437 109.691 117.094 108.33C113.698 106.827 111.612 102.849 112.273 99.2074C112.493 98.0022 113.025 96.8489 113.737 95.8641C115.202 93.8684 117.521 92.4948 119.996 92.3523C119.309 90.3437 118.597 88.3092 118.052 86.2618C117.456 83.994 117.055 81.6744 117.055 79.3419C117.055 75.869 118.104 72.2276 120.346 69.6359C120.968 68.8843 121.72 68.2364 122.549 67.6921L119.996 69.3379L119.957 69.3638C119.944 69.3379 119.944 69.3119 119.931 69.286C119.815 68.8973 119.724 68.5085 119.607 68.1198L117.573 60.85C117.236 59.6837 116.925 58.5175 116.588 57.3512C116.394 56.6514 116.173 55.8998 115.655 55.3556C114.735 54.3966 113.271 54.4225 111.936 54.6428C112.273 57.6104 113.297 60.5001 114.826 63.1177C109.241 68.6122 106.688 77.3333 106.934 85.4065C106.999 87.7909 107.271 90.1752 106.908 92.5207C106.714 93.8555 106.312 95.1254 105.884 96.3954C104.29 97.1599 102.282 98.8575 101.051 102.641C100.999 102.784 100.96 102.926 100.895 103.082C100.843 103.276 100.779 103.471 100.727 103.678C100.649 104.028 100.545 104.365 100.494 104.715C100.468 104.831 100.442 104.922 100.429 105.039L100.455 105.052C100.053 107.656 100.364 110.468 100.999 113.047C102.399 118.645 105.223 123.958 109.163 128.144L109.137 128.131C109.137 128.131 109.176 128.17 109.241 128.235C109.85 128.87 110.472 129.492 111.133 130.075C111.133 130.075 111.262 130.204 111.508 130.399C111.703 130.541 111.962 130.749 112.286 130.969C116.705 134.597 124.584 139.716 127.771 133.314H127.758C128.056 132.822 128.264 132.304 128.458 131.785Z" fill="url(#paint1_linear_65_272)"/>
</mask>
<g mask="url(#mask0_65_272)">
<path d="M128.458 131.785C128.756 130.93 129.339 128.986 129.404 126.926C129.391 126.874 129.378 126.822 129.352 126.77C128.899 127.937 128.16 128.999 127.214 129.828C127.085 129.945 126.968 130.036 126.838 130.139C126.514 129.466 126.203 128.779 125.879 128.105C125.659 127.638 125.439 127.172 125.219 126.705C125.063 127.016 124.869 127.302 124.661 127.574C123.106 129.569 120.268 130.463 117.729 130.075C116.342 129.854 115.059 129.323 113.867 128.597C112.571 127.807 111.379 126.757 110.355 125.617C105.781 120.524 104.122 111.959 108.826 106.995C110.912 109.134 114.437 109.691 117.094 108.33C113.698 106.827 111.612 102.849 112.273 99.2074C112.493 98.0022 113.025 96.8489 113.737 95.8641C115.202 93.8684 117.521 92.4948 119.996 92.3523C119.309 90.3437 118.597 88.3092 118.052 86.2618C117.456 83.994 117.055 81.6744 117.055 79.3419C117.055 75.869 118.104 72.2276 120.346 69.6359C120.968 68.8843 121.72 68.2364 122.549 67.6921L119.996 69.3379L119.957 69.3638C119.944 69.3379 119.944 69.3119 119.931 69.286C119.815 68.8973 119.724 68.5085 119.607 68.1198L117.573 60.85C117.236 59.6837 116.925 58.5175 116.588 57.3512C116.394 56.6514 116.173 55.8998 115.655 55.3556C114.735 54.3966 113.271 54.4225 111.936 54.6428C112.273 57.6104 113.297 60.5001 114.826 63.1177C109.241 68.6122 106.688 77.3333 106.934 85.4065C106.999 87.7909 107.271 90.1752 106.908 92.5207C106.714 93.8555 106.312 95.1254 105.884 96.3954C104.29 97.1599 102.282 98.8575 101.051 102.641C100.999 102.784 100.96 102.926 100.895 103.082C100.843 103.276 100.779 103.471 100.727 103.678C100.649 104.028 100.545 104.365 100.494 104.715C100.468 104.831 100.442 104.922 100.429 105.039L100.455 105.052C100.053 107.656 100.364 110.468 100.999 113.047C102.399 118.645 105.223 123.958 109.163 128.144L109.137 128.131C109.137 128.131 109.176 128.17 109.241 128.235C109.85 128.87 110.472 129.492 111.133 130.075C111.133 130.075 111.262 130.204 111.508 130.399C111.703 130.541 111.962 130.749 112.286 130.969C116.705 134.597 124.584 139.716 127.771 133.314H127.758C128.056 132.822 128.264 132.304 128.458 131.785Z" fill="url(#paint2_linear_65_272)"/>
<path d="M145.499 77.5018C144.358 77.5407 143.218 77.5278 142.052 77.45C140.017 77.2945 137.97 77.0353 135.961 76.6336C130.557 75.584 125.348 73.5624 121.046 70.1803C120.813 69.9988 120.592 69.8174 120.372 69.623C120.255 69.5323 120.139 69.4287 120.022 69.3379C120.009 69.325 119.983 69.2991 119.957 69.2861C119.685 69.0399 119.413 68.7937 119.141 68.5345C117.482 66.9277 116.031 65.1005 114.865 63.1178C113.323 60.5002 112.299 57.6104 111.975 54.6429C111.819 53.2952 111.806 51.9475 111.962 50.5869C112.726 43.7189 117.275 37.8486 122.445 33.2743C123.975 31.9136 125.555 30.6566 127.175 29.4126C127.331 29.607 127.383 29.8532 127.331 30.1642L128.29 29.9569C124.467 32.8725 121.175 36.7601 119.957 41.4252C118.739 46.0773 119.996 51.5588 123.819 54.4874C123.482 52.427 124.337 50.2111 125.944 48.8634C125.581 51.2737 125.763 53.7358 126.411 56.0813C127.46 60.0337 129.832 63.6232 133.136 66.0335C132.786 64.1804 133.214 62.1978 134.277 60.6298C133.745 65.567 136.052 70.7245 140.082 73.6272C141.857 74.9231 144.06 75.895 145.499 77.5018Z" fill="url(#paint3_linear_65_272)"/>
<g opacity="0.6">
<path opacity="0.6" d="M124.674 66.2797C127.383 69.1824 130.091 72.0981 132.799 75.0008C133.914 76.193 135.041 77.4111 136.441 78.2145C140.393 80.5082 145.408 79.1087 150.008 79.1605C152.548 79.1864 155.27 79.8214 156.747 81.9466C158.224 84.0848 157.511 87.9853 155.023 88.7628C152.872 89.4237 150.967 87.5706 148.829 87.1171C146.445 86.6117 143.996 87.9075 141.689 88.9701C137.879 90.7195 133.875 91.8988 129.832 92.4949C127.927 92.767 125.996 92.9225 124.13 92.6245C119.491 91.8858 115.513 88.1926 114.282 83.3461C113.05 78.4996 114.696 72.746 118.389 69.299C120.113 67.7181 122.549 65.865 124.674 66.2797Z" fill="#89693E"/>
</g>
<path d="M125.102 66.0591C127.888 68.8193 130.661 71.5925 133.447 74.3526C134.588 75.493 135.754 76.6463 137.153 77.4238C141.158 79.6656 146.095 78.5253 150.669 78.7067C153.196 78.8104 155.917 79.4713 157.446 81.4798C158.976 83.4884 158.392 87.0779 155.943 87.7129C153.831 88.2572 151.874 86.4819 149.736 86.0153C147.352 85.484 144.954 86.5985 142.687 87.5056C138.955 88.9958 135.015 89.9677 131.011 90.3953C129.132 90.5897 127.214 90.6675 125.348 90.3306C120.722 89.5012 116.653 85.9765 115.279 81.4798C113.919 76.9832 115.37 71.722 118.934 68.6509C120.618 67.2384 122.977 65.6056 125.102 66.0591Z" fill="#CCA66A"/>
</g>
</g>
<defs>
<linearGradient id="paint0_linear_65_272" x1="239.311" y1="60.1226" x2="239.311" y2="266" gradientUnits="userSpaceOnUse">
<stop stop-color="#EDAE49" stop-opacity="0.91578"/>
<stop offset="0.729167" stop-color="#EDAE49" stop-opacity="0.0104167"/>
</linearGradient>
<linearGradient id="paint1_linear_65_272" x1="114.85" y1="140.044" x2="114.85" y2="58.1987" gradientUnits="userSpaceOnUse">
<stop stop-color="#B3B3B3"/>
<stop offset="0.2422" stop-color="#CECECE"/>
<stop offset="0.537" stop-color="#E9E9E9"/>
<stop offset="0.7991" stop-color="#F9F9F9"/>
<stop offset="1" stop-color="white"/>
</linearGradient>
<linearGradient id="paint2_linear_65_272" x1="114.85" y1="140.044" x2="114.85" y2="58.1987" gradientUnits="userSpaceOnUse">
<stop stop-color="#AA8550"/>
<stop offset="0.1098" stop-color="#B48F58"/>
<stop offset="0.4561" stop-color="#CFA96C"/>
<stop offset="0.7641" stop-color="#DFB978"/>
<stop offset="1" stop-color="#E5BF7C"/>
</linearGradient>
<linearGradient id="paint3_linear_65_272" x1="124.73" y1="64.5503" x2="148.593" y2="40.688" gradientUnits="userSpaceOnUse">
<stop stop-color="#CCA66A"/>
<stop offset="0.2115" stop-color="#D2AC6E"/>
<stop offset="1" stop-color="#E5BF7C"/>
</linearGradient>
<clipPath id="clip0_65_272">
<rect width="101.077" height="167.166" fill="white" transform="translate(278.964 0.294922)"/>
</clipPath>
<clipPath id="clip1_65_272">
<rect width="107.854" height="135.145" fill="white" transform="translate(100.299 8.06982)"/>
</clipPath>
</defs>
</svg>
